<svg xmlns="http://www.w3.org/2000/svg" width="70.918" height="49.629" viewBox="0 0 70.918 49.629">
  <g id="agile-software" transform="translate(-3.666 -16.885)">
    <path id="Path_865" data-name="Path 865" d="M79.218,33.96a1.169,1.169,0,0,0,0-1.738,1.187,1.187,0,0,0-.82-.386,1.233,1.233,0,0,0-.917.386,1.286,1.286,0,0,0,0,1.738,1.2,1.2,0,0,0,.917.338A1.128,1.128,0,0,0,79.218,33.96Zm5.649.821a.954.954,0,0,0-.676-.289.989.989,0,0,0-1.014,1.014,1.161,1.161,0,0,0,.289.724.948.948,0,0,0,.724.242.9.9,0,0,0,.676-.242,1.16,1.16,0,0,0,.289-.724A.98.98,0,0,0,84.867,34.781ZM57.4,66.981a2.808,2.808,0,0,0-2.076-.869,2.969,2.969,0,0,0-2.9,2.9,2.808,2.808,0,0,0,.869,2.075,2.78,2.78,0,0,0,2.027.869,2.809,2.809,0,0,0,2.076-.869,2.858,2.858,0,0,0,0-4.1ZM48.949,73.5a2.091,2.091,0,0,0-1.641.724,1.785,1.785,0,0,0-.676,1.545,1.966,1.966,0,0,0,.676,1.641,2.217,2.217,0,0,0,1.641.676,2.382,2.382,0,0,0,1.641-.676,2.257,2.257,0,0,0,.627-1.641,2.039,2.039,0,0,0-.627-1.545A2.237,2.237,0,0,0,48.949,73.5ZM25.825,74.947a1.028,1.028,0,0,0-.338.724,1.014,1.014,0,0,0,.338.676.875.875,0,0,0,.676.29,1.063,1.063,0,0,0,.724-.29.953.953,0,0,0,.29-.676.984.984,0,0,0-.29-.724,1.065,1.065,0,0,0-.724-.289A.875.875,0,0,0,25.825,74.947Zm7.434,2.173a1.178,1.178,0,0,0-.965-.386,1.141,1.141,0,0,0-.917.386,1.316,1.316,0,0,0-.386.917,1.433,1.433,0,0,0,.386.965,1.274,1.274,0,0,0,.917.338A1.314,1.314,0,0,0,33.259,79a1.2,1.2,0,0,0,.338-.965A1.1,1.1,0,0,0,33.259,77.12Zm6.035,2.8a1.462,1.462,0,0,0,2.173,0,1.321,1.321,0,0,0,.435-1.062,1.358,1.358,0,0,0-.435-1.11,1.5,1.5,0,0,0-1.062-.435,1.488,1.488,0,0,0-1.545,1.545,1.5,1.5,0,0,0,.434,1.062ZM71.35,31.208a1.419,1.419,0,0,0-1.063-.434,1.53,1.53,0,0,0-1.11.434,1.5,1.5,0,0,0-.435,1.062,1.488,1.488,0,0,0,1.545,1.545,1.42,1.42,0,0,0,1.063-.434,1.571,1.571,0,0,0,.483-1.11A1.551,1.551,0,0,0,71.35,31.208Zm-7.966,2.51a2.332,2.332,0,0,0-3.283,0,2.3,2.3,0,0,0-.676,1.641,2.191,2.191,0,0,0,.676,1.593,2.331,2.331,0,0,0,3.283,0,2.187,2.187,0,0,0,.676-1.593A2.3,2.3,0,0,0,63.384,33.719ZM57.4,40.043a2.807,2.807,0,0,0-2.076-.869,2.885,2.885,0,0,0-2.9,2.944,2.93,2.93,0,0,0,.821,2.028,2.969,2.969,0,0,0,2.075.869,3.059,3.059,0,0,0,2.945-2.9A2.807,2.807,0,0,0,57.4,40.043Z" transform="translate(-14.387 -13.889)" fill="#b01842" fill-rule="evenodd"/>
    <path id="Path_866" data-name="Path 866" d="M53.268,61.182c-1.159.483-2.269,1.062-3.38,1.545V77.258c-.049,2.848,2.124,4.3,6.565,4.3V79.286a3.613,3.613,0,0,1-2.268-.628,2.158,2.158,0,0,1-.917-1.835V61.182Zm12.6,5.6a9.911,9.911,0,0,0-6.083,1.883,6.629,6.629,0,0,0-2.9,5.648,6.411,6.411,0,0,0,2.8,5.407,10.247,10.247,0,0,0,6.131,1.835,19.157,19.157,0,0,0,4.538-.531,16.21,16.21,0,0,0,3.765-1.641l-1.4-1.835a12.045,12.045,0,0,1-6.276,1.835,6.676,6.676,0,0,1-4.1-1.158A4.327,4.327,0,0,1,60.46,74.41H74.219a5.43,5.43,0,0,0,.242-1.545,5.17,5.17,0,0,0-2.221-4.393,10.733,10.733,0,0,0-6.372-1.69ZM62.2,69.968a6.355,6.355,0,0,1,3.814-1.062,6.072,6.072,0,0,1,3.813,1.11,3.136,3.136,0,0,1,1.3,2.559H60.557A3.883,3.883,0,0,1,62.2,69.968ZM7.646,68.182l1.448,2.124A7.823,7.823,0,0,1,13.971,69c2.752,0,4.1,1.159,4.1,3.476a9.316,9.316,0,0,0-2.413-.338,12.157,12.157,0,0,0-6.421,1.5c-1.69.965-2.559,2.221-2.559,3.669a3.644,3.644,0,0,0,1.641,3.041,6.144,6.144,0,0,0,3.862,1.207c2.8,0,4.876-.676,6.228-1.931a2.749,2.749,0,0,0,1.5,1.448A7.221,7.221,0,0,0,23,81.555v-1.3a2.42,2.42,0,0,1-1.5-2.462V72.672a5.342,5.342,0,0,0-1.883-4.538c-1.255-.917-3.283-1.352-6.035-1.352a12.713,12.713,0,0,0-3.235.434,9.134,9.134,0,0,0-2.7.965Zm8.207,5.842a22.137,22.137,0,0,1,2.221.242v3.476a6.392,6.392,0,0,1-4.489,1.787c-2.366,0-3.524-.724-3.524-2.173a2.836,2.836,0,0,1,1.593-2.366A8.315,8.315,0,0,1,15.853,74.024ZM25.8,68.23a4.419,4.419,0,0,0-2.028,3.717c0,2.366,1.352,4.007,4.007,4.924a7.148,7.148,0,0,0-2.366.821c-.627.386-.965.821-.965,1.3q0,2.317,4.055,2.317c.579-.048,1.352-.1,2.366-.241a14.732,14.732,0,0,1,2.028-.193c2.269,0,3.38.531,3.38,1.689-.048.579-.483,1.063-1.352,1.5a9.034,9.034,0,0,1-3.572.579,12.768,12.768,0,0,1-5.5-1.5l-1.834,2.028a12.462,12.462,0,0,0,3.331,1.208,15.97,15.97,0,0,0,3.862.483,12.838,12.838,0,0,0,5.986-1.207c1.594-.821,2.366-1.883,2.366-3.187a3.251,3.251,0,0,0-1.545-2.8,8.722,8.722,0,0,0-4.393-.965,19.819,19.819,0,0,0-2.462.193,17.994,17.994,0,0,1-2.366.193c-1.159,0-1.738-.193-1.738-.531,0-.289.289-.483.869-.628a4.018,4.018,0,0,1,1.3-.289l2.8-.241a8.1,8.1,0,0,0,4.731-1.69,4.72,4.72,0,0,0,.531-6.9l1.979-1.159L37.1,66.106l-1.69,1.5a10.268,10.268,0,0,0-4.441-.821A8.918,8.918,0,0,0,25.8,68.23Zm2.511,1.5a4.181,4.181,0,0,1,2.9-.917,3.888,3.888,0,0,1,2.752.917A2.951,2.951,0,0,1,35.068,72a3.252,3.252,0,0,1-1.062,2.511,3.92,3.92,0,0,1-2.8.917,4.048,4.048,0,0,1-2.9-.965A3,3,0,0,1,27.247,72,2.757,2.757,0,0,1,28.309,69.727Zm18.055-2.7H40.378v2.124h2.607V81.313h3.379V67.023Zm29.4,5.938v1.4h.144v-1.4h.338v-.1h-.821v.1Zm.821,1.4h-.145v-1.5h.242l.338,1.3.386-1.3H77.6v1.5h-.145v-1.4l-.338,1.4h-.145l-.386-1.4Z" transform="translate(-3.015 -32.276)" fill="#234d8e" fill-rule="evenodd"/>
  </g>
</svg>
