<svg xmlns="http://www.w3.org/2000/svg" width="71.289" height="71.289" viewBox="0 0 71.289 71.289">
  <g id="Icon-1" transform="translate(-0.25)">
    <circle id="bg" cx="35.644" cy="35.644" r="35.644" transform="translate(0.25)" fill="#94cb1d"/>
    <g id="svgexport-17_80_" data-name="svgexport-17 (80)" transform="translate(20.25 17)">
      <path id="Path_9214" data-name="Path 9214" d="M188.606,155.787a.561.561,0,0,0-.2-.007,1.341,1.341,0,0,1-1.186-1.33.59.59,0,1,0-1.18,0,2.523,2.523,0,0,0,1.855,2.43v.59a.59.59,0,0,0,1.18,0v-.554a2.519,2.519,0,0,0-.516-4.984,1.339,1.339,0,1,1,1.339-1.339.59.59,0,0,0,1.18,0,2.523,2.523,0,0,0-2-2.466v-.537a.59.59,0,0,0-1.18,0v.573a2.519,2.519,0,0,0,.664,4.948,1.338,1.338,0,0,1,.049,2.676Zm0,0" transform="translate(-172.348 -136.162)" fill="#fff"/>
      <path id="Path_9215" data-name="Path 9215" d="M104.2,115.045a8.553,8.553,0,1,0,8.553-8.553A8.553,8.553,0,0,0,104.2,115.045Zm8.553-7.373a7.373,7.373,0,1,1-7.373,7.373A7.373,7.373,0,0,1,112.748,107.672Zm0,0" transform="translate(-96.539 -98.64)" fill="#fff"/>
      <path id="Path_9216" data-name="Path 9216" d="M28.029,26.412l-4.62,2.183a3.763,3.763,0,0,0-3.208-1.98L15.935,26.5A4.5,4.5,0,0,1,14,26l-.434-.225a7.655,7.655,0,0,0-7.091.007L6.5,24.8a.59.59,0,0,0-.573-.606l-4.677-.129a.59.59,0,0,0-.606.573L.36,34.9a.59.59,0,0,0,.573.606l4.677.129h.016a.59.59,0,0,0,.59-.574l.013-.491,1.215-.651A2.084,2.084,0,0,1,9,33.748l7.256,2.036.038.01a7.767,7.767,0,0,0,1.595.164,7.87,7.87,0,0,0,3.288-.717.547.547,0,0,0,.073-.04l10.521-6.8a.59.59,0,0,0,.193-.786,2.979,2.979,0,0,0-3.935-1.2ZM1.556,34.342l.25-9.085,3.5.1-.25,9.085Zm19.09-.154a6.688,6.688,0,0,1-4.09.457L9.32,32.613a3.261,3.261,0,0,0-2.431.266l-.621.333.166-6.04a6.484,6.484,0,0,1,6.587-.351l.434.225a5.7,5.7,0,0,0,2.449.633l4.266.117a2.587,2.587,0,0,1,2.459,2.061l-6.354-.175a.59.59,0,0,0-.033,1.179l7.012.193h.016a.59.59,0,0,0,.589-.574,3.743,3.743,0,0,0-.057-.765l4.739-2.239.014-.007a1.8,1.8,0,0,1,2.038.285ZM17.158,6.193V.59a.59.59,0,1,0-1.18,0v5.6a.59.59,0,1,0,1.18,0Zm4.424,0V3.539a.59.59,0,0,0-1.18,0V6.193a.59.59,0,0,0,1.18,0Zm-8.847,0V3.539a.59.59,0,0,0-1.18,0V6.193a.59.59,0,0,0,1.18,0Zm0,0" transform="translate(-0.36)" fill="#fff"/>
    </g>
  </g>
</svg>
