<svg id="google-2015" xmlns="http://www.w3.org/2000/svg" width="87.721" height="28.634" viewBox="0 0 87.721 28.634">
  <path id="Path_867" data-name="Path 867" d="M10.8,0h.78a10.645,10.645,0,0,1,7.286,3.076c-.706.721-1.428,1.413-2.119,2.134a7.961,7.961,0,0,0-13.364,4.8,8.193,8.193,0,0,0,1.781,6.329,7.878,7.878,0,0,0,5.74,2.826,7.641,7.641,0,0,0,5.711-1.958,6.234,6.234,0,0,0,1.9-4.062c-2.443,0-4.886.015-7.33,0V10.111H21.471a10.43,10.43,0,0,1-2.708,9.243,10.059,10.059,0,0,1-6.255,2.811,11.488,11.488,0,0,1-6.579-1.3A11.327,11.327,0,0,1,.675,14.88,10.852,10.852,0,0,1,.6,7.536,11.205,11.205,0,0,1,4.648,2.164,11.555,11.555,0,0,1,10.8,0Z" transform="translate(0.003)" fill="#3780ff"/>
  <path id="Path_868" data-name="Path 868" d="M474.4,5.2h3.15V26.218c-1.045,0-2.1.015-3.15-.015.015-6.991,0-14,0-21Z" transform="translate(-404.576 -4.435)" fill="#38b137"/>
  <path id="Path_869" data-name="Path 869" d="M160.055,53.943a7.4,7.4,0,0,1,5.652,1.207,6.913,6.913,0,0,1,2.782,4.415,7.117,7.117,0,0,1-7.477,8.537,7.163,7.163,0,0,1-5.357-2.87,7.357,7.357,0,0,1-.971-6.682,6.985,6.985,0,0,1,5.372-4.607m.442,2.8a3.957,3.957,0,0,0-2.061,1.31,4.668,4.668,0,0,0,.236,6.079,3.919,3.919,0,0,0,3.5,1.089,3.964,3.964,0,0,0,2.738-2.016,4.655,4.655,0,0,0-.795-5.534,3.971,3.971,0,0,0-3.621-.927Z" transform="translate(-131.575 -45.893)" fill="#fa3913"/>
  <path id="Path_870" data-name="Path 870" d="M266.082,53.937a7.156,7.156,0,0,1,7.006,11.524,7.28,7.28,0,0,1-11.407-.235,7.428,7.428,0,0,1-.927-6.829,6.991,6.991,0,0,1,5.328-4.46m.441,2.8a4.025,4.025,0,0,0-2.061,1.3,4.675,4.675,0,0,0,.162,6.02,3.938,3.938,0,0,0,3.591,1.163,4.038,4.038,0,0,0,2.738-2.016,4.68,4.68,0,0,0-.824-5.549A3.946,3.946,0,0,0,266.524,56.734Z" transform="translate(-222.001 -45.886)" fill="#fcbd06"/>
  <path id="Path_871" data-name="Path 871" d="M369.411,54.788a6.017,6.017,0,0,1,5.77-.442,5.5,5.5,0,0,1,1.5,1.1c.015-.4,0-.81.015-1.222.986.015,1.972,0,2.973.015V67.225a7.758,7.758,0,0,1-1.928,5.46,7.016,7.016,0,0,1-6.049,1.737,6.844,6.844,0,0,1-5.151-4.106c.883-.427,1.81-.765,2.723-1.163a4.048,4.048,0,0,0,2.87,2.473,3.815,3.815,0,0,0,3.68-1.177,5.887,5.887,0,0,0,.868-4.018,5.225,5.225,0,0,1-2.4,1.472,6.468,6.468,0,0,1-5.873-1.516,7.245,7.245,0,0,1,1-11.6m3.047,1.884a3.872,3.872,0,0,0-2.311,1.339,4.7,4.7,0,0,0,.015,5.9,3.851,3.851,0,0,0,3.312,1.354,3.74,3.74,0,0,0,2.811-1.869,4.968,4.968,0,0,0-.5-5.564A3.622,3.622,0,0,0,372.458,56.672Z" transform="translate(-312.098 -45.884)" fill="#3780ff"/>
  <path id="Path_872" data-name="Path 872" d="M508.57,55.486a6.643,6.643,0,0,1,6.756-1.339,7.6,7.6,0,0,1,4.209,4.96c-3.194,1.325-6.373,2.635-9.567,3.959A3.8,3.8,0,0,0,512,64.979a4.123,4.123,0,0,0,3.886-.559,6.267,6.267,0,0,0,1.089-1.163c.81.545,1.619,1.074,2.428,1.619a7.206,7.206,0,0,1-11.377.721,7.545,7.545,0,0,1,.545-10.111m1.575,2.723a4.2,4.2,0,0,0-.692,2.473q3.2-1.325,6.4-2.664a2.648,2.648,0,0,0-2.075-1.457A3.761,3.761,0,0,0,510.144,58.208Z" transform="translate(-431.813 -45.83)" fill="#fa3913"/>
</svg>
