<svg xmlns="http://www.w3.org/2000/svg" width="99.788" height="46.284" viewBox="0 0 99.788 46.284">
  <g id="insights-software" transform="translate(-2.835 -52.993)">
    <path id="Path_877" data-name="Path 877" d="M68.109,73.386v1.251H66.858V70.77h1.251a3.558,3.558,0,0,0,1.1,1.971,3.046,3.046,0,0,0,2.122.758,2.5,2.5,0,0,0,1.517-.493,2.01,2.01,0,0,0,.645-1.364,1.441,1.441,0,0,0-.569-1.213,6.364,6.364,0,0,0-1.9-.721l-1.1-.341a5.09,5.09,0,0,1-2.275-1.1,2.968,2.968,0,0,1-.682-1.9,3.244,3.244,0,0,1,.8-2.2,3.554,3.554,0,0,1,2.313-.8,3.6,3.6,0,0,1,1.516.3,2.625,2.625,0,0,1,1.138.872v-.947h1.251v3.146H72.735A3.387,3.387,0,0,0,71.711,65.2a2.543,2.543,0,0,0-1.668-.569,2.4,2.4,0,0,0-1.327.417,1.825,1.825,0,0,0-.493,1.213A1.46,1.46,0,0,0,68.6,67.32,3.756,3.756,0,0,0,70.156,68l.872.189a7.12,7.12,0,0,1,2.843,1.251,2.828,2.828,0,0,1,.872,2.047,3.09,3.09,0,0,1-1.023,2.35,3.924,3.924,0,0,1-2.616.91A3.855,3.855,0,0,1,69.4,74.37a2.712,2.712,0,0,1-1.29-.984Zm9.7.114h1.251v1.137H75.275V73.5h1.289V64.743H75.275V63.606h3.791v1.137H77.814V73.5Zm11.675,1.137H88.237V73.386a4.985,4.985,0,0,1-1.629,1.061,6.27,6.27,0,0,1-1.934.3A5.641,5.641,0,0,1,80.656,73.2,5.99,5.99,0,0,1,79.1,69.065a5.8,5.8,0,0,1,1.554-4.056,5.4,5.4,0,0,1,4.018-1.63,4.942,4.942,0,0,1,1.744.3,7.63,7.63,0,0,1,1.592,1.024v-1.1h1.251v3.9H88.2a4.866,4.866,0,0,0-1.251-2.123,3.435,3.435,0,0,0-2.274-.758,3.761,3.761,0,0,0-2.881,1.251,4.718,4.718,0,0,0-1.174,3.184,4.551,4.551,0,0,0,1.137,3.184A3.788,3.788,0,0,0,84.675,73.5a4.227,4.227,0,0,0,2.274-.606,4.025,4.025,0,0,0,1.289-2.009H85.509V69.747H90.74v1.137H89.489v3.753Zm9.4-6.369V64.743H97.64V63.606h3.752v1.137h-1.251V73.5h1.251v1.137H97.64V73.5h1.25V69.367H93.507V73.5h1.251v1.137H91.006V73.5h1.25V64.743h-1.25V63.606h3.752v1.137H93.507v3.526H98.89Zm7.885,5.231h1.251v1.137h-3.753V73.5h1.251V64.743H103.4v1.9h-1.251V63.606h8v3.033H108.9v-1.9h-2.123Zm5.572-.114v1.251H111.1V70.77h1.251a3.558,3.558,0,0,0,1.1,1.971,3.078,3.078,0,0,0,2.161.758,2.473,2.473,0,0,0,1.479-.493,2.013,2.013,0,0,0,.644-1.364,1.441,1.441,0,0,0-.569-1.213,6.344,6.344,0,0,0-1.9-.721l-1.1-.341a5.093,5.093,0,0,1-2.275-1.1,2.971,2.971,0,0,1-.682-1.9,3.247,3.247,0,0,1,.8-2.2,3.551,3.551,0,0,1,2.312-.8,3.6,3.6,0,0,1,1.517.3,2.622,2.622,0,0,1,1.137.872v-.947h1.251v3.146h-1.251a3.381,3.381,0,0,0-1.023-1.554,2.543,2.543,0,0,0-1.668-.569,2.4,2.4,0,0,0-1.327.417,1.828,1.828,0,0,0-.493,1.213,1.46,1.46,0,0,0,.379,1.061,3.752,3.752,0,0,0,1.554.682l.872.189a7.127,7.127,0,0,1,2.843,1.251,2.833,2.833,0,0,1,.872,2.047,3.09,3.09,0,0,1-1.023,2.35,3.924,3.924,0,0,1-2.616.91,3.858,3.858,0,0,1-1.706-.379,2.708,2.708,0,0,1-1.289-.984Zm-61.789-.265c.644-.076,1.251-.152,1.9-.228.114.606.266,1.175.417,1.744-1.857.341-3.715.569-5.534.8a12.864,12.864,0,0,1-.644-1.933c.607-.038,1.251-.114,1.857-.152a26.688,26.688,0,0,1-.227-6.937,26.122,26.122,0,0,1,1.706-6.558c-.531,0-1.1.038-1.667.076q.459-.853.986-1.667a18.988,18.988,0,0,1,3.6.076,23.746,23.746,0,0,0,1.82,6.255,49.007,49.007,0,0,0,3.487,6.179c0-1.365.038-2.691.152-4.018a34.773,34.773,0,0,1,.606-3.9c-.569-.341-1.176-.682-1.744-1.061.114-.455.3-.91.455-1.4a36.432,36.432,0,0,0,5,3.071c0,.379-.038.758-.076,1.175a16.06,16.06,0,0,1-1.706-.682,51.016,51.016,0,0,0-.455,5.345,43.83,43.83,0,0,0,.189,5.459c-.531-.038-1.061-.076-1.63-.114a45.638,45.638,0,0,1-4.624-5.989,39.722,39.722,0,0,1-3.3-6.6,29.247,29.247,0,0,0-.872,5.459,25.433,25.433,0,0,0,.3,5.61Zm-7.392.72c.644-.076,1.251-.114,1.9-.189a13.284,13.284,0,0,0,.72,1.933c-1.933.151-3.867.3-5.8.379a12.959,12.959,0,0,1-.872-1.781,14.644,14.644,0,0,0,1.857-.152,17.642,17.642,0,0,1-.227-6.747,17.612,17.612,0,0,1,2.729-6.255c-.531.228-1.061.493-1.592.758.455-.493.947-.948,1.478-1.441a18.87,18.87,0,0,1,4.662-1.9q-.569.8-1.1,1.63c-.531.114-1.061.227-1.63.379A19.246,19.246,0,0,0,42.9,66.9,20.462,20.462,0,0,0,43.166,73.841ZM41.5,77.935a66.458,66.458,0,0,0,11.372-1.1,55.55,55.55,0,0,1,11.448-1.1,35.031,35.031,0,0,0-2.729,4.7,23.1,23.1,0,0,0-7.126,1.857c-2.426,1.023-5.459.606-8.036-.3A25.392,25.392,0,0,1,41.5,77.935Z" transform="translate(-16.927 -2.435)" fill-rule="evenodd"/>
    <path id="Path_878" data-name="Path 878" d="M83.582,91.21h55.534v4.739H81.042Z" transform="translate(-36.493 -17.833)" fill-rule="evenodd"/>
    <path id="Path_879" data-name="Path 879" d="M73.017,95.925V93.271h1.857v.455H73.547v.569h1.137v.455H73.547v1.175h-.531Zm10.008,0v-2.2h-.8v-.455h2.122v.455h-.8v2.2Zm9.249,0-.757-2.654h.569l.454,1.858.417-1.858h.569l.379,1.858.456-1.858h.569l-.758,2.654h-.531l-.417-2.009L92.8,95.925h-.531ZM103.3,93.8l-.379,1.137h.721L103.3,93.8Zm-.341-.531h.644l.948,2.654h-.569l-.189-.569h-1.023l-.189.569h-.569l.947-2.654Zm9.553,1.175h.644a.709.709,0,0,0,.3-.076.342.342,0,0,0,.114-.266.294.294,0,0,0-.114-.265c-.037-.076-.151-.114-.3-.114h-.644Zm-.531,1.479V93.271h1.251a1.131,1.131,0,0,1,.682.189.854.854,0,0,1,.189.569,1.33,1.33,0,0,1-.076.417.6.6,0,0,1-.3.228c.114.038.189.076.227.189a.809.809,0,0,1,.076.379l.038.3v.037a.362.362,0,0,0,.075.266v.076h-.569a.14.14,0,0,1-.037-.114.491.491,0,0,1-.037-.228v-.265a.468.468,0,0,0-.114-.342.5.5,0,0,0-.3-.076h-.568v1.024h-.532Zm9.78,0V93.271h1.9v.455H122.3v.569h1.25v.455H122.3v.682h1.44v.493h-1.971Zm-59.666-.3a1.046,1.046,0,0,0,.455.72,1.068,1.068,0,0,0,.682.076.638.638,0,0,0,.531-.227.887.887,0,0,0,0-.758,1.276,1.276,0,0,0-.417-.645,2.008,2.008,0,0,0-.682-.151.738.738,0,0,0-.644.266C61.91,95.052,61.986,95.356,62.1,95.622Zm-.682.076c-.151-.455-.227-.834,0-1.138a1.205,1.205,0,0,1,1.061-.417,2.32,2.32,0,0,1,1.213.227,1.723,1.723,0,0,1,.72,1.024.959.959,0,0,1-.076,1.023,1.363,1.363,0,0,1-.872.569,2.182,2.182,0,0,1-1.213-.227,1.856,1.856,0,0,1-.834-1.061ZM53.76,97.289a3.731,3.731,0,0,0,.644-.037,1.382,1.382,0,0,0,.606.454,1.563,1.563,0,0,0,.606.114c.152,0,.3-.075.3-.114a1.6,1.6,0,0,0-.189-.379,2.593,2.593,0,0,0-1.251-.417h-.038l-.076-.037a4.07,4.07,0,0,1-.872-.228,2.274,2.274,0,0,1-.531-.265,2.176,2.176,0,0,1-.531-.493.853.853,0,0,1-.265-.758c.076-.152.3-.3.758-.3a3.009,3.009,0,0,1,1.1.227,3.96,3.96,0,0,1,.986.8,3.227,3.227,0,0,1-.644.038,1.432,1.432,0,0,0-.493-.342.96.96,0,0,0-.607-.189.322.322,0,0,0-.341.189.6.6,0,0,0,.114.3,1.563,1.563,0,0,0,.91.379,2.992,2.992,0,0,1,.341.037c.266.038.531.115.644.115.076.037.227.075.3.114a1.955,1.955,0,0,1,.569.266,6.586,6.586,0,0,1,.531.493,1.747,1.747,0,0,1,.417.8.538.538,0,0,1-.569.341,2.5,2.5,0,0,1-1.213-.3,3.947,3.947,0,0,1-1.213-.8Z" transform="translate(-23.009 -18.795)" fill="#fff" fill-rule="evenodd"/>
    <path id="Path_880" data-name="Path 880" d="M58.314,57.456a15.305,15.305,0,1,0,0,21.645A15.4,15.4,0,0,0,58.314,57.456Zm-1.44,1.4a13.309,13.309,0,1,0,0,18.84A13.327,13.327,0,0,0,56.874,58.858Z" transform="translate(-13.69)" fill="#7b002b" fill-rule="evenodd"/>
    <path id="Path_881" data-name="Path 881" d="M24.913,100.933l-2.54-2.616C19.719,101.009,11,106.657,8.309,109.31c-3.791,3.866-3.753,3.488-5.421,8.567-.3,1.441.682,2.655,2.54,2.541,4.966-1.669,4.663-1.706,8.491-5.535C16.573,112.191,22.3,103.586,24.913,100.933Z" transform="translate(0 -21.149)" fill="#7b002b" fill-rule="evenodd"/>
  </g>
</svg>
