<svg xmlns="http://www.w3.org/2000/svg" width="71.289" height="71.289" viewBox="0 0 71.289 71.289">
  <g id="Group_16055" data-name="Group 16055" transform="translate(-112.639 0.481)">
    <g id="Icon-1" transform="translate(112.639 -0.481)">
      <circle id="bg" cx="35.644" cy="35.644" r="35.644" fill="#94cb1d" opacity="0.14"/>
    </g>
    <g id="svgexport-17_82_" data-name="svgexport-17 (82)" transform="translate(133.288 21.168)">
      <path id="Path_9232" data-name="Path 9232" d="M18.4,167.461h-.547a.49.49,0,0,1-.461-.321q-.091-.238-.2-.469a.49.49,0,0,1,.1-.555l.39-.39a1.5,1.5,0,0,0,0-2.109l-1.406-1.406a1.5,1.5,0,0,0-2.109,0l-.39.389a.493.493,0,0,1-.555.1q-.232-.105-.47-.2a.489.489,0,0,1-.323-.462v-.547A1.492,1.492,0,0,0,10.943,160H8.954a1.492,1.492,0,0,0-1.492,1.492v.547a.489.489,0,0,1-.321.461c-.159.061-.315.126-.469.2a.492.492,0,0,1-.555-.1l-.39-.39a1.5,1.5,0,0,0-2.109,0l-1.406,1.41a1.5,1.5,0,0,0,0,2.109l.389.39a.49.49,0,0,1,.1.555q-.105.232-.2.47a.489.489,0,0,1-.464.321H1.492A1.492,1.492,0,0,0,0,168.954v1.99a1.492,1.492,0,0,0,1.492,1.492h.547a.49.49,0,0,1,.461.321c.061.159.126.315.2.469a.49.49,0,0,1-.1.555l-.39.39a1.5,1.5,0,0,0,0,2.109l1.406,1.406a1.5,1.5,0,0,0,2.109,0l.39-.389a.493.493,0,0,1,.555-.1q.232.105.47.2a.489.489,0,0,1,.325.462v.547A1.492,1.492,0,0,0,8.954,179.9h1.99a1.492,1.492,0,0,0,1.492-1.492v-.547a.49.49,0,0,1,.321-.461c.159-.061.315-.126.469-.2a.492.492,0,0,1,.555.1l.39.39a1.5,1.5,0,0,0,2.109,0l1.406-1.406a1.5,1.5,0,0,0,0-2.109l-.389-.39a.49.49,0,0,1-.1-.555q.105-.232.2-.47a.489.489,0,0,1,.462-.323H18.4a1.492,1.492,0,0,0,1.492-1.492v-1.99A1.492,1.492,0,0,0,18.4,167.461Zm.5,3.482a.5.5,0,0,1-.5.5h-.547a1.5,1.5,0,0,0-1.393.962q-.079.208-.171.411a1.5,1.5,0,0,0,.3,1.669l.389.389a.5.5,0,0,1,0,.7h0l-1.406,1.406a.5.5,0,0,1-.7,0l-.39-.389a1.5,1.5,0,0,0-1.669-.3q-.2.092-.41.171a1.5,1.5,0,0,0-.962,1.392v.547a.5.5,0,0,1-.5.5H8.954a.5.5,0,0,1-.5-.5v-.547a1.5,1.5,0,0,0-.962-1.393q-.208-.079-.411-.171a1.5,1.5,0,0,0-1.669.3l-.389.389a.5.5,0,0,1-.7,0h0l-1.406-1.4a.5.5,0,0,1,0-.7l.389-.39a1.5,1.5,0,0,0,.3-1.669q-.092-.2-.171-.41a1.5,1.5,0,0,0-1.392-.963H1.492a.5.5,0,0,1-.5-.5v-1.99a.5.5,0,0,1,.5-.5h.547a1.5,1.5,0,0,0,1.393-.962q.079-.209.171-.411a1.5,1.5,0,0,0-.3-1.669l-.391-.389a.5.5,0,0,1,0-.7h0l1.406-1.406a.5.5,0,0,1,.7,0l.39.389a1.5,1.5,0,0,0,1.669.3q.2-.092.41-.171a1.5,1.5,0,0,0,.964-1.392v-.547a.5.5,0,0,1,.5-.5h1.99a.5.5,0,0,1,.5.5v.547a1.5,1.5,0,0,0,.962,1.393q.209.079.411.171a1.5,1.5,0,0,0,1.669-.3l.389-.389a.5.5,0,0,1,.7,0l1.406,1.406a.5.5,0,0,1,0,.7l-.389.39a1.5,1.5,0,0,0-.3,1.669q.092.2.171.41a1.5,1.5,0,0,0,1.392.962H18.4a.5.5,0,0,1,.5.5Z" transform="translate(0 -150.052)" fill="#94cb1d"/>
      <path id="Path_9233" data-name="Path 9233" d="M96.251,19.7q-.007-.179-.028-.357c-.016-.127-.035-.254-.061-.378-.017-.081-.04-.161-.062-.242q-.042-.153-.094-.3-.037-.1-.076-.206a4.434,4.434,0,0,0-.219-.466c-.006-.011-.01-.024-.017-.035a4.413,4.413,0,0,0-.448-.652c-.014-.018-.031-.035-.046-.052q-.1-.121-.213-.235c-.039-.04-.08-.078-.12-.117s-.1-.092-.149-.136-.122-.1-.185-.152l-.082-.061a4.445,4.445,0,0,0-2.667-.887c-.05,0-.1.007-.149.009q-.16,0-.319.02c-.056.006-.113.012-.169.02a4.561,4.561,0,0,0-.482.09,4.479,4.479,0,0,0,0,8.675.114.114,0,0,1,.025,0,4.744,4.744,0,0,0,.521.1c.116.014.232.017.348.023.078,0,.149.015.23.015.142,0,.289-.009.439-.024a.489.489,0,0,0,.05-.006q.185-.02.368-.056c.05-.009.1-.022.144-.033q.133-.03.264-.068c.07-.021.137-.045.205-.069s.139-.05.209-.077.13-.058.194-.088c.084-.038.167-.076.249-.121h0a5.888,5.888,0,0,0,1.275-.921,1.566,1.566,0,0,0,.267-.326,5.31,5.31,0,0,0,.749-2.044c.014-.1.026-.192.034-.29s.012-.18.014-.269c0-.028,0-.055,0-.084C96.261,19.83,96.254,19.766,96.251,19.7Zm-.991.326c0,.041,0,.083-.006.123q-.014.182-.045.362a3.489,3.489,0,0,1-1.748,2.437q-.09.048-.183.091l-.041.02a3.593,3.593,0,0,1-.907.275l-.067.01c-.062.009-.123.016-.184.022q-.121.01-.243.012h-.1a3.491,3.491,0,0,1-.352-.022l-.06-.007a3.681,3.681,0,0,1-.406-.077,3.482,3.482,0,0,1,0-6.746h0a3.6,3.6,0,0,1,.874-.109,3.437,3.437,0,0,1,.425.029c.038,0,.075.011.112.017.107.017.214.038.319.065l.1.026a3.512,3.512,0,0,1,.759.319l.113.069c.079.05.155.1.23.156.04.029.081.058.12.09a3.588,3.588,0,0,1,.28.249c.035.036.068.075.1.112.057.062.113.126.166.193q.055.07.107.142c.05.072.1.146.144.222l.075.124a3.413,3.413,0,0,1,.171.365c.02.05.037.1.055.149.032.092.06.184.085.278.012.05.026.094.037.142a3.505,3.505,0,0,1,.063.407c0,.036,0,.073.005.109.007.114.009.229,0,.345Zm14.929-9.578h-1.564a.486.486,0,0,1-.464-.326,10.359,10.359,0,0,0-.559-1.349.487.487,0,0,1,.1-.562L108.807,7.1a1.492,1.492,0,0,0,0-2.11l-2.115-2.112a1.492,1.492,0,0,0-2.11,0l-1.109,1.108a.487.487,0,0,1-.561.1,10.333,10.333,0,0,0-1.349-.562.485.485,0,0,1-.328-.464V1.492A1.492,1.492,0,0,0,99.743,0H96.758a1.492,1.492,0,0,0-1.492,1.492V3.057a.485.485,0,0,1-.326.464,10.367,10.367,0,0,0-1.349.561.486.486,0,0,1-.562-.1L91.919,2.877a1.5,1.5,0,0,0-2.11,0L87.7,4.988a1.492,1.492,0,0,0,0,2.11l1.631,1.634a.5.5,0,1,0,.7-.7L88.4,6.4a.5.5,0,0,1,0-.7l2.111-2.111a.5.5,0,0,1,.7,0l1.111,1.109a1.479,1.479,0,0,0,1.709.281,9.412,9.412,0,0,1,1.219-.507,1.48,1.48,0,0,0,1.005-1.408V1.492a.5.5,0,0,1,.5-.5h2.985a.5.5,0,0,1,.5.5V3.057a1.479,1.479,0,0,0,1.005,1.407,9.382,9.382,0,0,1,1.22.507,1.482,1.482,0,0,0,1.709-.281l1.111-1.109a.5.5,0,0,1,.7,0L108.1,5.693a.5.5,0,0,1,0,.7L106.99,7.507a1.48,1.48,0,0,0-.281,1.709,9.409,9.409,0,0,1,.507,1.219,1.479,1.479,0,0,0,1.408,1.005h1.564a.5.5,0,0,1,.5.5v2.985a.5.5,0,0,1-.5.5h-1.564a1.479,1.479,0,0,0-1.407,1.005,9.374,9.374,0,0,1-.507,1.22,1.481,1.481,0,0,0,.281,1.709l1.109,1.111a.5.5,0,0,1,0,.7l-2.112,2.111a.5.5,0,0,1-.7,0l-1.635-1.631a.5.5,0,1,0-.7.7l1.634,1.631a1.492,1.492,0,0,0,2.11,0l2.111-2.111a1.492,1.492,0,0,0,0-2.11l-1.108-1.11a.487.487,0,0,1-.1-.561,10.335,10.335,0,0,0,.562-1.349.485.485,0,0,1,.464-.328h1.564a1.492,1.492,0,0,0,1.492-1.492V11.938a1.492,1.492,0,0,0-1.492-1.492Z" transform="translate(-81.836)" fill="#94cb1d"/>
      <path id="Path_9234" data-name="Path 9234" d="M197.411,113.94a6.473,6.473,0,0,0-9.145,0,.5.5,0,1,0,.7.7,5.472,5.472,0,1,1,7.79,7.686l-.052.052a.5.5,0,1,0,.7.7A6.473,6.473,0,0,0,197.411,113.94Z" transform="translate(-176.423 -105.082)" fill="#94cb1d"/>
    </g>
  </g>
</svg>
