<svg xmlns="http://www.w3.org/2000/svg" width="99.881" height="20.616" viewBox="0 0 99.881 20.616">
  <path id="lenovo-logo-2015" d="M44.363,5.837a6.509,6.509,0,0,0-5.108,2.51v0h0V6.1h-4.3V21.764h4.3V12.851A3.357,3.357,0,0,1,42.8,9.541a3.451,3.451,0,0,1,3.622,3.31v8.913h4.3v-9.71a6.029,6.029,0,0,0-6.362-6.217M81.3,6.1l-3.889,10.67L73.519,6.1H68.606l6.445,15.66h4.714L86.21,6.1ZM22.112,10.82a4,4,0,0,1,3.309-1.561,3.6,3.6,0,0,1,3.334,2.192L21.24,14.568a5.037,5.037,0,0,1,.872-3.749m8.264,6.129a6.541,6.541,0,0,1-4.5,1.659,4.766,4.766,0,0,1-3.469-1.27l11-4.562A8.491,8.491,0,0,0,31.53,8.4a7.859,7.859,0,0,0-6.188-2.566,8.023,8.023,0,0,0-8.3,8.1c0,4.728,3.575,8.1,8.77,8.1A10.318,10.318,0,0,0,33.1,19.039Zm-13.74.866H6.86V1.415H2.5V21.764H16.637Zm77.3-8.293a4.125,4.125,0,0,0-4.147,4.41,4.266,4.266,0,0,0,4.2,4.41,4.152,4.152,0,0,0,4.146-4.41,4.265,4.265,0,0,0-4.2-4.41m0,12.506a8.1,8.1,0,1,1,8.447-8.1,8.128,8.128,0,0,1-8.447,8.1M60.816,9.522a4.124,4.124,0,0,0-4.146,4.41,4.265,4.265,0,0,0,4.2,4.41,4.152,4.152,0,0,0,4.146-4.41,4.265,4.265,0,0,0-4.2-4.41m0,12.506a8.1,8.1,0,1,1,8.448-8.1,8.127,8.127,0,0,1-8.448,8.1" transform="translate(-2.5 -1.415)" fill="#e60012"/>
</svg>
