<svg id="lexmark-2015" xmlns="http://www.w3.org/2000/svg" width="102.564" height="20.254" viewBox="0 0 102.564 20.254">
  <path id="polygon3009" d="M95.792,199.5H79.5v3.963l1.489,5.892,4.671.267,3.963-3.963,7.843-1.684Z" transform="translate(-79.5 -199.5)" fill="#00c425"/>
  <path id="polygon3005" d="M79.5,238.1v16.292h3.963l6.632-.554-.462-5.615Z" transform="translate(-79.5 -234.137)" fill="#3af23a"/>
  <path id="polygon3007" d="M118.1,308.232h16.292V304.27l-1.735-5.277-4.435-.893Z" transform="translate(-114.137 -287.978)" fill="#006446"/>
  <path id="path3011" d="M428.388,227.908l-3.583,3.254,3.583,3.275v1.889h-.113l-5.318-4.825v4.589h-1.54V222.21h1.54v8.674l5.287-4.815h.144ZM358.9,236.089h7.863v-1.55H360.5V222.662h-1.6Zm13.3-10.009c-2.412,0-4.609,1.961-4.609,5.123a4.752,4.752,0,0,0,4.907,5.1,5.886,5.886,0,0,0,3.562-1.109v-1.653a5.485,5.485,0,0,1-3.511,1.345,3.244,3.244,0,0,1-3.418-3.09h7.33c.021-.2.062-.626.062-.79C376.526,227.774,374.576,226.08,372.2,226.08Zm.01,1.406a2.754,2.754,0,0,1,2.8,2.967h-5.892A3.076,3.076,0,0,1,372.215,227.487Zm25.859-1.406a3.113,3.113,0,0,0-2.813,1.7,2.719,2.719,0,0,0-2.741-1.7,2.911,2.911,0,0,0-2.618,1.653h-.041l-.185-1.458h-1.222v9.8h1.56v-6.19a2.146,2.146,0,0,1,2.1-2.32c1.324,0,1.909.78,1.909,2.2v6.324h1.56v-6.3a2.1,2.1,0,0,1,2.094-2.217c1.345,0,1.92.78,1.92,2.2v6.324h1.56V229.55C401.174,227.5,400.219,226.08,398.074,226.08Zm9.414,0c-2.341,0-4.527,1.981-4.527,5.123,0,3.1,2.176,5.1,4.527,5.1a3.98,3.98,0,0,0,3.593-2.053h.021l.185,1.838h1.273v-9.8h-1.273l-.185,1.838h-.021A4.01,4.01,0,0,0,407.487,226.08Zm.287,1.458a3.679,3.679,0,1,1-3.254,3.675A3.352,3.352,0,0,1,407.775,227.538Zm11.436-1.365a3.194,3.194,0,0,0-2.813,1.673h-.021l-.164-1.56h-1.252v9.8h1.56v-5.646a2.614,2.614,0,0,1,3.347-2.669v-1.55A4.166,4.166,0,0,0,419.211,226.173Zm-32.758-.113h-.123l-4.1,4.086-4.086-4.086h-.123v1.981l3.152,3.152-3.152,3.131v2h.123l4.065-4.106,4.117,4.106h.123v-2.012l-3.182-3.152,3.182-3.2v-1.9Zm41.935-3.634v-.216h1.7v.216h-.719v1.7h-.257v-1.714C429.107,222.426,428.388,222.426,428.388,222.426Zm2.566-.216.739,1.622.739-1.622h.349v1.92h-.246v-1.612l-.739,1.612h-.216l-.729-1.612v1.612h-.246V222.2h.349Z" transform="translate(-330.218 -219.87)" fill="#32323c"/>
  <path id="polygon3003" d="M188.322,215.792V199.5h-3.963l-6.159,6.159Z" transform="translate(-168.068 -199.5)" fill="#008a44"/>
</svg>
