<svg xmlns="http://www.w3.org/2000/svg" width="90.649" height="42.773" viewBox="0 0 90.649 42.773">
  <g id="Group_16033" data-name="Group 16033" transform="translate(-169.313 -412.085)">
    <path id="Path_852" data-name="Path 852" d="M257.6,539.3c-.106.288.163.377.295.524a10.4,10.4,0,0,1-2.9,16.368,10.051,10.051,0,0,1-4.591,1.117c-4.678.015-9.356.006-14.034,0-.171,0-.407.094-.5-.059-.121-.2.108-.356.2-.514.98-1.613,1.981-3.214,2.952-4.832a.763.763,0,0,1,.761-.415c3.5.013,7.007.01,10.51.007a4.582,4.582,0,0,0,1.25-9,3.755,3.755,0,0,0-1.061-.126q-2.744,0-5.478,0c-.086-.215.062-.326.139-.452,1.011-1.659,2.033-3.311,3.036-4.974a.742.742,0,0,1,.75-.422,11.042,11.042,0,0,0,2.437-.094,12.571,12.571,0,0,1,2.645.607A11.4,11.4,0,0,1,257.6,539.3Z" transform="translate(-58.564 -109.488)" fill="#0b4a63"/>
    <path id="Path_853" data-name="Path 853" d="M188.786,412.128c-1.553,2.528-3.069,4.994-4.584,7.461s-3.012,4.909-4.556,7.426h7.342c.081.234-.063.343-.14.469-1.006,1.645-2.017,3.287-3.021,4.934-.15.246-.283.435-.633.434q-6.781-.019-13.562-.01a2.722,2.722,0,0,1-.319-.049l9.154-14.912h-7.351c-.074-.229.069-.338.146-.465q1.508-2.468,3.02-4.933c.139-.228.262-.4.587-.4q6.811.018,13.621.01C188.562,412.095,188.633,412.11,188.786,412.128Z" transform="translate(0 0)" fill="#0b4a63"/>
    <path id="Path_854" data-name="Path 854" d="M337.8,429.812c-.538.023-.766-.463-1.115-.723a9.916,9.916,0,0,0-4.672-1.914c-.187-.025-.355-.041-.448-.229a4.636,4.636,0,0,0,3.5-4.96,4.568,4.568,0,0,0-4.377-4.116c-1.249-.054-2.5-.01-3.738-.01-.1-.228.063-.338.137-.46.992-1.629,2-3.245,2.982-4.883a.8.8,0,0,1,.81-.432,10.4,10.4,0,0,1,9.889,8.8A10.176,10.176,0,0,1,337.8,429.812Z" transform="translate(-138.771 -0.001)" fill="#023149"/>
    <path id="Path_855" data-name="Path 855" d="M824.959,600.42c-1.294,0-2.588,0-3.882,0-.775,0-1.012-.292-.837-1.035q1.563-6.641,3.133-13.281a.792.792,0,0,1,.872-.705c2.608.006,5.215-.011,7.823,0,.923,0,1.115.28.9,1.191q-1.528,6.466-3.054,12.932c-.189.8-.3.9-1.133.9C827.507,600.424,826.233,600.42,824.959,600.42Z" transform="translate(-573.086 -152.595)" fill="#023149"/>
    <path id="Path_856" data-name="Path 856" d="M492.065,600.4c-.975,0-1.95-.019-2.924.008-.447.012-.48-.17-.394-.532q1.518-6.341,3.024-12.684.179-.753.356-1.507c.042-.178.078-.332.333-.32a25.609,25.609,0,0,1,3.216.084,4.347,4.347,0,0,1,2.645,6.985c-.26.325-.307.5-.017.87a4.144,4.144,0,0,1,.53,4.591,4.187,4.187,0,0,1-3.9,2.486c-.954.031-1.91.005-2.865.005Z" transform="translate(-281.225 -152.56)" fill="#023149"/>
    <path id="Path_857" data-name="Path 857" d="M733.144,587.8h-4.318c.514-.836.979-1.589,1.441-2.344.122-.2.316-.132.484-.133q3.435-.006,6.871,0c.146,0,.347-.1.435.072s-.092.286-.171.415q-3.5,5.719-7.013,11.435l-.354.58h5.071c-.171.71-.32,1.345-.479,1.978a.656.656,0,0,1-.7.533q-4.241,0-8.483,0c-.564,0-.192-.3-.108-.436q2.391-3.92,4.8-7.827,1.17-1.905,2.337-3.812C733.04,588.129,733.173,588.018,733.144,587.8Z" transform="translate(-489.828 -152.508)" fill="#023149"/>
    <path id="Path_858" data-name="Path 858" d="M186.767,606.133c-.449.878-11.7,19.148-12.064,19.578.574-2.423,1.131-4.778,1.69-7.132q1.426-6,2.851-12c.058-.246.086-.453.424-.452C182.011,606.137,184.355,606.133,186.767,606.133Z" transform="translate(-4.746 -170.853)" fill="#94cb1d"/>
    <path id="Path_859" data-name="Path 859" d="M647.671,587.6c-1.761,0-3.469-.01-5.177.007-.436,0-.7-.037-.471-.561a2.805,2.805,0,0,0,.1-.4c.135-.492.05-1.186.435-1.429s1-.082,1.514-.083c3.582,0,7.163,0,10.874,0-.508.83-.975,1.6-1.447,2.359-.1.169-.286.106-.437.107a19.717,19.717,0,0,1-2.029-.012c-.569-.054-.729.188-.845.688-.863,3.713-1.763,7.417-2.627,11.129a.822.822,0,0,1-.95.751,11.648,11.648,0,0,0-1.373,0c-.432.032-.543-.1-.438-.524.507-2.062.993-4.13,1.484-6.2C646.746,591.514,647.2,589.587,647.671,587.6Z" transform="translate(-416.139 -152.327)" fill="#023149"/>
    <path id="Path_860" data-name="Path 860" d="M586.265,585.423l-2.975,12.549c1.746,0,3.436.027,5.125-.015.586-.014.677.154.5.664-.133.394-.192.812-.29,1.218a.714.714,0,0,1-.768.6c-2.489,0-4.978-.007-7.467,0-.363,0-.365-.118-.292-.421q1.7-7.071,3.356-14.151c.089-.383.245-.471.6-.459C584.773,585.439,585.489,585.423,586.265,585.423Z" transform="translate(-361.662 -152.615)" fill="#023149"/>
    <path id="Path_861" data-name="Path 861" d="M848.5,616.164c-.577,0-1.153-.009-1.73,0-.294.007-.419-.023-.331-.388.75-3.1,1.478-6.213,2.208-9.321a.409.409,0,0,1,.476-.381q1.759.03,3.519,0c.379-.006.407.108.325.449q-1.116,4.6-2.187,9.2c-.081.35-.213.452-.551.438C849.652,616.147,849.074,616.164,848.5,616.164Z" transform="translate(-596.176 -170.808)" fill="#fefefe"/>
    <path id="Path_862" data-name="Path 862" d="M517.565,662.295c-.466-.066-1.244.26-1.531-.13-.217-.3.163-1.036.286-1.576a9.19,9.19,0,0,0,.3-1.271c.054-.674.351-.917,1.019-.832.45.057.914-.006,1.37.015a1.9,1.9,0,0,1-.038,3.791C518.536,662.306,518.1,662.295,517.565,662.295Z" transform="translate(-305.226 -216.939)" fill="#fefefe"/>
    <path id="Path_863" data-name="Path 863" d="M529.759,609.9c-.948,0-.952,0-.739-.922.192-.829.413-1.652.581-2.486.067-.334.224-.394.526-.4a1.943,1.943,0,0,1,2.092,1.876,1.916,1.916,0,0,1-1.984,1.928C530.077,609.9,529.918,609.9,529.759,609.9Z" transform="translate(-316.617 -170.82)" fill="#fdfefe"/>
  </g>
</svg>
