<svg xmlns="http://www.w3.org/2000/svg" width="44.001" height="44.001" viewBox="0 0 44.001 44.001">
  <g id="Icon" transform="translate(0.5 0.5)">
    <rect id="bg" width="43.001" height="43.001" rx="6" fill="none" stroke="#94cb1d" stroke-width="1"/>
    <g id="svgexport-6_-_2023-08-07T233903.704" data-name="svgexport-6 - 2023-08-07T233903.704" transform="translate(12.193 12.18)">
      <path id="Path_9207" data-name="Path 9207" d="M15.063,11.548a1.833,1.833,0,0,0-1.33-.61,1.9,1.9,0,0,0-1.346.606l-1.243,1.239c-.1-.055-.2-.106-.3-.157-.142-.071-.275-.138-.389-.209A13.512,13.512,0,0,1,7.214,9.466,7.972,7.972,0,0,1,6.152,7.79c.323-.3.622-.6.913-.9.11-.11.22-.224.33-.334a1.805,1.805,0,0,0,0-2.723L6.321,2.762c-.122-.122-.248-.248-.366-.374-.236-.244-.484-.5-.74-.732A1.862,1.862,0,0,0,3.9,1.078a1.927,1.927,0,0,0-1.338.578l-.008.008L1.214,3.014A2.878,2.878,0,0,0,.361,4.844a6.9,6.9,0,0,0,.5,2.919,16.94,16.94,0,0,0,3.01,5.02,18.515,18.515,0,0,0,6.165,4.827A9.606,9.606,0,0,0,13.5,18.633c.083,0,.169.008.248.008a2.965,2.965,0,0,0,2.27-.976c0-.008.012-.012.016-.02a8.944,8.944,0,0,1,.689-.712c.169-.161.342-.33.511-.508a1.963,1.963,0,0,0,.594-1.361,1.891,1.891,0,0,0-.606-1.349l-2.16-2.168Zm1.408,4.143s0,0,0,0c-.153.165-.311.315-.48.48a10.345,10.345,0,0,0-.759.787,1.9,1.9,0,0,1-1.479.626c-.059,0-.122,0-.181,0a8.533,8.533,0,0,1-3.069-.921A17.477,17.477,0,0,1,4.7,12.11,15.973,15.973,0,0,1,1.864,7.393,5.618,5.618,0,0,1,1.423,4.93a1.806,1.806,0,0,1,.543-1.168L3.307,2.42a.894.894,0,0,1,.6-.279.842.842,0,0,1,.574.275l.012.012c.24.224.468.456.708.7.122.126.248.252.374.382L6.648,4.588a.751.751,0,0,1,0,1.22c-.114.114-.224.228-.338.338-.33.338-.645.653-.988.96-.008.008-.016.012-.02.02a.8.8,0,0,0-.2.893l.012.035A8.623,8.623,0,0,0,6.38,10.127l0,0A14.44,14.44,0,0,0,9.878,13.31a5.371,5.371,0,0,0,.484.264c.142.071.275.138.389.209.016.008.031.02.047.028a.853.853,0,0,0,.389.1.841.841,0,0,0,.6-.271l1.346-1.346a.89.89,0,0,1,.594-.3.8.8,0,0,1,.567.287l.008.008,2.168,2.168a.778.778,0,0,1,0,1.231ZM10.4,4.434a5.063,5.063,0,0,1,4.123,4.123A.528.528,0,0,0,15.051,9a.7.7,0,0,0,.09-.008.532.532,0,0,0,.437-.614A6.123,6.123,0,0,0,10.59,3.388a.534.534,0,0,0-.614.433.525.525,0,0,0,.429.614ZM18.95,8.223A10.082,10.082,0,0,0,10.735.008a.53.53,0,1,0-.173,1.047A9,9,0,0,1,17.9,8.4a.528.528,0,0,0,.523.441.7.7,0,0,0,.09-.008.521.521,0,0,0,.433-.606Z" transform="translate(-0.344 0)" fill="#94cb1d"/>
    </g>
  </g>
</svg>
