<svg xmlns="http://www.w3.org/2000/svg" width="71.289" height="71.289" viewBox="0 0 71.289 71.289">
  <g id="Group_16184" data-name="Group 16184" transform="translate(-100.24 0.481)">
    <g id="Icon-1" transform="translate(100.24 -0.481)">
      <circle id="bg" cx="35.644" cy="35.644" r="35.644" fill="#94cb1d"/>
    </g>
    <g id="svgexport-17_83_" data-name="svgexport-17 (83)" transform="translate(122.24 23.519)">
      <path id="Path_9235" data-name="Path 9235" d="M118.407,160.786a.454.454,0,0,1-.3-.109l-2.952-2.514a.456.456,0,0,1,0-.695l2.952-2.514a.456.456,0,1,1,.591.694l-2.544,2.166,2.544,2.166a.456.456,0,0,1-.3.8Zm5.827,0a.456.456,0,0,1-.3-.8l2.544-2.166-2.544-2.166a.456.456,0,0,1,.591-.694l2.952,2.514a.456.456,0,0,1,0,.695l-2.952,2.514a.454.454,0,0,1-.3.109Zm-3.959,1.885a.456.456,0,0,1-.447-.55l1.84-8.735a.456.456,0,0,1,.893.188l-1.84,8.735A.456.456,0,0,1,120.275,162.671Zm0,0" transform="translate(-107.504 -143.051)" fill="#fff"/>
      <path id="Path_9236" data-name="Path 9236" d="M24.569,24.379H3.063A3.066,3.066,0,0,1,0,21.316V3.063A3.067,3.067,0,0,1,3.063,0H24.569a3.067,3.067,0,0,1,3.063,3.063V21.316A3.066,3.066,0,0,1,24.569,24.379ZM3.063.912A2.153,2.153,0,0,0,.912,3.063V21.316a2.153,2.153,0,0,0,2.151,2.151H24.569a2.153,2.153,0,0,0,2.151-2.151V3.063A2.153,2.153,0,0,0,24.569.912Zm0,0" transform="translate(0)" fill="#fff"/>
      <path id="Path_9237" data-name="Path 9237" d="M27.175,39.158H.455a.456.456,0,1,1,0-.912H27.175a.456.456,0,1,1,0,.912ZM7.793,36.975a1.444,1.444,0,1,1,1.444-1.444A1.446,1.446,0,0,1,7.793,36.975Zm0-1.975a.531.531,0,1,0,.531.531A.532.532,0,0,0,7.793,35ZM3.358,36.961A1.444,1.444,0,1,1,4.8,35.518a1.445,1.445,0,0,1-1.444,1.444Zm0-1.975a.531.531,0,1,0,.531.531.532.532,0,0,0-.531-.531Zm8.871,2a1.444,1.444,0,1,1,1.444-1.444A1.445,1.445,0,0,1,12.229,36.989Zm0-1.975a.531.531,0,1,0,.531.531A.532.532,0,0,0,12.229,35.014Zm0,0" transform="translate(0.001 -31.853)" fill="#fff"/>
    </g>
  </g>
</svg>
