<svg xmlns="http://www.w3.org/2000/svg" xmlns:xlink="http://www.w3.org/1999/xlink" width="71.289" height="71.289" viewBox="0 0 71.289 71.289">
  <defs>
    <clipPath id="clip-path">
      <path id="Path_9231" data-name="Path 9231" d="M0-682.665H34.722v34.722H0Z" transform="translate(0 682.665)" fill="#94cb1d"/>
    </clipPath>
  </defs>
  <g id="Group_16054" data-name="Group 16054" transform="translate(-989.263 -3042)">
    <g id="Icon-1" transform="translate(989.263 3042)" opacity="0.14">
      <circle id="bg" cx="35.644" cy="35.644" r="35.644" fill="#94cb1d"/>
    </g>
    <g id="svgexport-17_81_" data-name="svgexport-17 (81)" transform="translate(1008.38 3059.961)">
      <g id="Group_16053" data-name="Group 16053" transform="translate(0 0)" clip-path="url(#clip-path)">
        <path id="Path_9217" data-name="Path 9217" d="M-129.5,0h2.213V3.117a1.678,1.678,0,0,1-1.678,1.678h-5.8a1.678,1.678,0,0,1-1.678-1.678V0h4.905" transform="translate(149.227 27.256)" fill="none" stroke="#94cb1d" stroke-linecap="round" stroke-linejoin="round" stroke-width="1"/>
        <path id="Path_9218" data-name="Path 9218" d="M0,0A3.1,3.1,0,0,0,2.959,2.184,3.1,3.1,0,0,0,5.919,0Z" transform="translate(14.402 32.05)" fill="none" stroke="#94cb1d" stroke-linecap="round" stroke-linejoin="round" stroke-width="1"/>
        <path id="Path_9219" data-name="Path 9219" d="M-129.411-181.432a2.788,2.788,0,0,1-2.788-2.788,2.788,2.788,0,0,1,2.788-2.788,2.788,2.788,0,0,1,2.788,2.788A2.788,2.788,0,0,1-129.411-181.432Zm6.935-1.746v-2.083l-1.7-.242a5.35,5.35,0,0,0-.624-1.508l1.034-1.376-1.473-1.473-1.376,1.034a5.352,5.352,0,0,0-1.508-.625l-.242-1.7h-2.083l-.242,1.7a5.352,5.352,0,0,0-1.508.625l-1.376-1.034-1.473,1.473,1.034,1.376a5.354,5.354,0,0,0-.624,1.508l-1.7.242v2.083l1.7.242a5.354,5.354,0,0,0,.624,1.508l-1.034,1.376,1.473,1.473,1.376-1.034a5.353,5.353,0,0,0,1.508.625l.242,1.7h2.083l.242-1.7a5.352,5.352,0,0,0,1.508-.625l1.376,1.034,1.473-1.473-1.034-1.376a5.353,5.353,0,0,0,.625-1.507Z" transform="translate(146.773 201.073)" fill="none" stroke="#94cb1d" stroke-linecap="round" stroke-linejoin="round" stroke-width="1"/>
        <path id="Path_9220" data-name="Path 9220" d="M0-55.667v-2.983" transform="translate(17.361 59.138)" fill="none" stroke="#94cb1d" stroke-linecap="round" stroke-linejoin="round" stroke-width="1"/>
        <path id="Path_9221" data-name="Path 9221" d="M0,0H2.983" transform="translate(29.602 15.712)" fill="none" stroke="#94cb1d" stroke-linecap="round" stroke-linejoin="round" stroke-width="1"/>
        <path id="Path_9222" data-name="Path 9222" d="M0,0H2.983" transform="translate(2.137 15.712)" fill="none" stroke="#94cb1d" stroke-linecap="round" stroke-linejoin="round" stroke-width="1"/>
        <path id="Path_9223" data-name="Path 9223" d="M0,0,2.109,2.109" transform="translate(6.596 4.946)" fill="none" stroke="#94cb1d" stroke-linecap="round" stroke-linejoin="round" stroke-width="1"/>
        <path id="Path_9224" data-name="Path 9224" d="M0,0,1.031.4" transform="translate(4.933 10.842)" fill="none" stroke="#94cb1d" stroke-linecap="round" stroke-linejoin="round" stroke-width="1"/>
        <path id="Path_9225" data-name="Path 9225" d="M-7.756-19.8l-.416-1.061" transform="translate(20.652 24.114)" fill="none" stroke="#94cb1d" stroke-linecap="round" stroke-linejoin="round" stroke-width="1"/>
        <path id="Path_9226" data-name="Path 9226" d="M0-19.8l.416-1.061" transform="translate(21.826 24.114)" fill="none" stroke="#94cb1d" stroke-linecap="round" stroke-linejoin="round" stroke-width="1"/>
        <path id="Path_9227" data-name="Path 9227" d="M-39.363,0l-2.109,2.109" transform="translate(67.489 4.946)" fill="none" stroke="#94cb1d" stroke-linecap="round" stroke-linejoin="round" stroke-width="1"/>
        <path id="Path_9228" data-name="Path 9228" d="M-19.238,0l-1.031.4" transform="translate(49.028 10.842)" fill="none" stroke="#94cb1d" stroke-linecap="round" stroke-linejoin="round" stroke-width="1"/>
        <path id="Path_9229" data-name="Path 9229" d="M-59.3,0a10.351,10.351,0,0,0-3.178,7.445,10.367,10.367,0,0,0,4.43,8.505,3.229,3.229,0,0,1,1.374,2.645h4.905" transform="translate(69.46 8.661)" fill="none" stroke="#94cb1d" stroke-linecap="round" stroke-linejoin="round" stroke-width="1"/>
        <path id="Path_9230" data-name="Path 9230" d="M-148.724-401.773h2.213a3.258,3.258,0,0,1,1.395-2.66,10.366,10.366,0,0,0,4.409-8.491A10.38,10.38,0,0,0-151-423.3a10.284,10.284,0,0,0-5.7,1.665" transform="translate(168.449 429.029)" fill="none" stroke="#94cb1d" stroke-linecap="round" stroke-linejoin="round" stroke-width="1"/>
      </g>
    </g>
  </g>
</svg>
