<svg id="angular-ar21" xmlns="http://www.w3.org/2000/svg" width="109.886" height="29.745" viewBox="0 0 109.886 29.745">
  <path id="Path_55" data-name="Path 55" d="M37.356,37.284V23.771h1.738l8.261,10.881V23.771h1.652V37.284H47.269L39,26.3V37.284H37.346Zm25.11-.536a10.039,10.039,0,0,1-3.519.622q-7.339,0-7.34-7.04c0-4.442,2.36-6.675,7.092-6.675a12.485,12.485,0,0,1,3.776.559v1.5a9.846,9.846,0,0,0-3.584-.665c-3.691,0-5.537,1.76-5.537,5.236,0,3.756,1.824,5.624,5.451,5.624a9.48,9.48,0,0,0,1.932-.236V31.148h1.738v5.6Zm2.79-4.679V23.763h1.738v8.305q0,3.9,3.9,3.9c2.575,0,3.9-1.3,3.9-3.9V23.763h1.738v8.305c0,3.541-1.868,5.322-5.624,5.322s-5.624-1.781-5.624-5.322Zm16.1-8.3V35.885h7.092V37.3H79.625V23.771h1.738Zm9.594,13.521H89.123L95.838,22l6.718,15.3h-1.932l-1.738-4.249H94.42l.472-1.416h3.412l-2.532-6.117L90.943,37.3Zm13.478,0V23.771H110.2c2.575,0,3.863,1.073,3.863,3.241,0,1.76-1.267,3.069-3.776,3.9l4.635,6.373h-2.3l-4.292-6.074V30.091c2.575-.408,3.9-1.395,3.9-2.983,0-1.245-.7-1.868-2.146-1.868h-3.863V37.284h-1.781Z" transform="translate(-5.034 -15.23)" fill="#b52e31"/>
  <path id="Path_56" data-name="Path 56" d="M5,20.159l13.842-4.935,14.208,4.85-2.3,18.307-11.91,6.588L7.125,38.475Z" transform="translate(-5 -15.223)" fill="#e23237"/>
  <path id="Path_57" data-name="Path 57" d="M33.065,20.073l-14.208-4.85V44.968l11.911-6.589,2.3-18.307Z" transform="translate(-5.015 -15.223)" fill="#b52e31"/>
  <path id="Path_58" data-name="Path 58" d="M18.871,18.7,10.242,37.88l3.22-.064L15.2,33.48h7.7l1.9,4.378,3.069.064-8.992-19.23Zm.02,6.159,2.919,6.1H16.336l2.555-6.094Z" transform="translate(-5.006 -15.227)" fill="#fff"/>
</svg>
