<svg xmlns="http://www.w3.org/2000/svg" xmlns:xlink="http://www.w3.org/1999/xlink" width="54" height="54" viewBox="0 0 54 54">
  <defs>
    <clipPath id="clip-path">
      <path id="Path_85" data-name="Path 85" d="M0-682.665H29.442v29.442H0Z" transform="translate(0 682.665)" fill="#0b4a63"/>
    </clipPath>
  </defs>
  <g id="Group_15694" data-name="Group 15694" transform="translate(-125 -2242)">
    <g id="Group_15682" data-name="Group 15682" transform="translate(125 2242)">
      <circle id="Ellipse_9" data-name="Ellipse 9" cx="27" cy="27" r="27" fill="#0b4a63" opacity="0.08"/>
    </g>
    <g id="svgexport-17_36_" data-name="svgexport-17 (36)" transform="translate(138.689 2256.687)">
      <g id="Group_15696" data-name="Group 15696" transform="translate(0 0.002)" clip-path="url(#clip-path)">
        <path id="Path_74" data-name="Path 74" d="M0,0H26.194" transform="translate(0.575 8.932)" fill="none" stroke="#0b4a63" stroke-linecap="round" stroke-linejoin="round" stroke-width="1"/>
        <path id="Path_75" data-name="Path 75" d="M-30.306-60.579a1.369,1.369,0,0,0,1.368-1.365,1.369,1.369,0,0,0-1.368-1.365,1.368,1.368,0,0,0-1.366,1.365A1.368,1.368,0,0,0-30.306-60.579Z" transform="translate(35.683 67.064)" fill="none" stroke="#0b4a63" stroke-linecap="round" stroke-linejoin="round" stroke-width="1"/>
        <path id="Path_76" data-name="Path 76" d="M-30.306,0h5.144A1.369,1.369,0,0,1-23.8,1.365,1.369,1.369,0,0,1-25.162,2.73h-5.144a1.369,1.369,0,0,1-1.366-1.365A1.369,1.369,0,0,1-30.306,0Z" transform="translate(47.554 3.754)" fill="none" stroke="#0b4a63" stroke-linecap="round" stroke-linejoin="round" stroke-width="1"/>
        <path id="Path_77" data-name="Path 77" d="M-30.306-60.579a1.369,1.369,0,0,0,1.368-1.365,1.369,1.369,0,0,0-1.368-1.365,1.368,1.368,0,0,0-1.366,1.365A1.368,1.368,0,0,0-30.306-60.579Z" transform="translate(40.726 67.064)" fill="none" stroke="#0b4a63" stroke-linecap="round" stroke-linejoin="round" stroke-width="1"/>
        <path id="Path_78" data-name="Path 78" d="M-25.533,0l-1.151,4.816" transform="translate(34.873 13.355)" fill="none" stroke="#0b4a63" stroke-linecap="round" stroke-linejoin="round" stroke-width="1"/>
        <path id="Path_79" data-name="Path 79" d="M0-87.545l1.628-1.828a.222.222,0,0,0,0-.29L0-91.49" transform="translate(11.99 105.28)" fill="none" stroke="#0b4a63" stroke-linecap="round" stroke-linejoin="round" stroke-width="1"/>
        <path id="Path_80" data-name="Path 80" d="M-37.322-87.545l-1.628-1.828a.222.222,0,0,1,0-.29l1.628-1.828" transform="translate(42.86 105.28)" fill="none" stroke="#0b4a63" stroke-linecap="round" stroke-linejoin="round" stroke-width="1"/>
        <path id="Path_81" data-name="Path 81" d="M-178.69-30.471a5.564,5.564,0,0,1,1.747.72l.471-.469a.72.72,0,0,1,1.017,0l.742.741a.72.72,0,0,1,0,1.017l-.469.471a5.553,5.553,0,0,1,.717,1.73h.66a.722.722,0,0,1,.72.718v1.051a.722.722,0,0,1-.72.718h-.663a5.571,5.571,0,0,1-.714,1.72l.469.469a.72.72,0,0,1,0,1.017l-.742.743a.72.72,0,0,1-1.017,0l-.471-.469a5.56,5.56,0,0,1-1.728.715v.668a.722.722,0,0,1-.719.72h-1.051a.722.722,0,0,1-.719-.72v-.67a5.571,5.571,0,0,1-1.725-.714l-.469.469a.72.72,0,0,1-1.017,0l-.743-.743a.722.722,0,0,1,0-1.017l.471-.469a5.534,5.534,0,0,1-.716-1.72h-.667a.721.721,0,0,1-.719-.718v-1.051a.721.721,0,0,1,.719-.718h.665a5.563,5.563,0,0,1,.706-1.712l-.473-.474a.72.72,0,0,1,0-1.017l.742-.741a.72.72,0,0,1,1.017,0l.468.466a5.593,5.593,0,0,1,1.721-.722v-.663a.721.721,0,0,1,.719-.72h1.05a.723.723,0,0,1,.72.72Z" transform="translate(201.951 46.367)" fill="none" stroke="#0b4a63" stroke-linecap="round" stroke-linejoin="round" stroke-width="1"/>
        <path id="Path_82" data-name="Path 82" d="M-65.784,0a2.963,2.963,0,0,1,2.963,2.963,2.963,2.963,0,0,1-2.963,2.962,2.963,2.963,0,0,1-2.965-2.962A2.963,2.963,0,0,1-65.784,0Z" transform="translate(87.821 18.387)" fill="none" stroke="#0b4a63" stroke-linecap="round" stroke-linejoin="round" stroke-width="1"/>
        <path id="Path_83" data-name="Path 83" d="M-123.032-473.215h-3.4a2.386,2.386,0,0,1-2.142-2.558v-16.213a2.384,2.384,0,0,1,2.142-2.558h21.911a2.385,2.385,0,0,1,2.142,2.558v12.6m-10.843,6.174h-4.667" transform="translate(129.152 495.809)" fill="none" stroke="#0b4a63" stroke-linecap="round" stroke-linejoin="round" stroke-width="1"/>
        <path id="Path_84" data-name="Path 84" d="M0,0H.011" transform="translate(8.696 22.594)" fill="none" stroke="#0b4a63" stroke-linecap="round" stroke-linejoin="round" stroke-width="1"/>
      </g>
    </g>
  </g>
</svg>
