<svg id="g29" xmlns="http://www.w3.org/2000/svg" width="105.987" height="38.093" viewBox="0 0 105.987 38.093">
  <path id="path2" d="M29.74,16.016c-1.944-1.212-3.78-1.688-5.614-2.9a26.154,26.154,0,0,1-4.038-4.184c-.256,2.532-1.027,3.559-1.908,4.294a26.417,26.417,0,0,1-4.661,2.79A16.671,16.671,0,0,0,4.785,30.585c0,9.469,7.964,16.441,16.808,16.441S38.108,40.6,38.108,30.879A17.259,17.259,0,0,0,29.74,16.016Zm.213,27.557A7.969,7.969,0,0,1,26.1,45.114c-1.982.184-4.661.294-6.276-1.174a.529.529,0,0,1,0-.77.855.855,0,0,1,.551-.257c.22,0,.184,0,.294.073.733.587,1.834,1.064,4.183,1.064a8.306,8.306,0,0,0,4.734-1.211c.331-.257.477-.037.514.11a.555.555,0,0,1-.146.623Zm-6.423-3.34a6.669,6.669,0,0,1,1.688-1.211,3.292,3.292,0,0,1,1.541-.22,3.038,3.038,0,0,1,1.652.33,2.9,2.9,0,0,1,.844,1.321.516.516,0,0,1-.293.733c-.257.147-.294.073-.551-.4s-.478-.955-1.762-.955a2.965,2.965,0,0,0-2.312.955c-.624.514-.844.7-1.064.4s-.147-.587.256-.954Zm9.726.294c-1.321-.11-3.964-4.221-5.652-4.294-2.128-.073-6.753,4.441-10.386,4.441-2.2,0-2.863-.33-3.6-.807a3.928,3.928,0,0,1-1.615-3.56A6.046,6.046,0,0,1,18.1,30.728c4.294-.036,7.267,4.258,9.432,4.221,1.835-.037,5.358-3.633,7.083-3.633,1.835,0,2.35,1.908,2.35,3.046a9.019,9.019,0,0,1-1.248,4.477c-.881,1.285-1.431,1.761-2.459,1.688Z" transform="translate(-4.785 -8.933)" fill="#0073ba"/>
  <path id="path2-4" d="M80.306,26.183H77.259l.006,5.7c0,1.667-.715,3.015-2.381,3.015S72.5,33.552,72.5,31.885v-5.7h-3.04v5.7c0,3.293,2.117,5.962,5.41,5.962s5.44-2.669,5.44-5.962Zm27.477-3.474h3.033V37.552h-3.033ZM66.978,26.06c-2.614-.6-4.263,1.993-4.331,2.133-.034.068-.035.108-.152.105-.095,0-.106-.105-.106-.105l-.324-1.987H59.349V37.542h3.045V31.406A3.318,3.318,0,0,1,66.36,29.12a4.131,4.131,0,0,1,1.884.874V26.54A4.858,4.858,0,0,0,66.978,26.06ZM84.438,41.277V37.2h0V35.671s.006-.122.115-.124.12.065.144.124a3.611,3.611,0,0,0,4.318,2.076,6,6,0,1,0-7.632-5.777v9.306ZM87.39,28.933a3.038,3.038,0,1,1-3.037,3.037A3.038,3.038,0,0,1,87.39,28.933Zm16.11,8.615h3.053V31.97a6,6,0,1,0-7.631,5.777,3.611,3.611,0,0,0,4.318-2.076c.024-.06.046-.125.144-.124s.114.124.114.124m.088-3.7a3.038,3.038,0,1,1-3.037-3.037A3.038,3.038,0,0,1,103.586,31.97ZM49.809,37.524H46.346V22.7h3.716c4.5,0,7.914.826,7.914,7.41,0,6.522-3.616,7.411-8.167,7.411Zm.827-12.252H49.413v9.68l1.257.032c2.579,0,4.239-.235,4.239-4.872,0-4.445-1.466-4.84-4.272-4.84Z" transform="translate(-4.829 -8.948)" fill="#0073ba"/>
</svg>
