<svg xmlns="http://www.w3.org/2000/svg" width="54" height="54" viewBox="0 0 54 54">
  <g id="Group_15695" data-name="Group 15695" transform="translate(-125 -2242)">
    <g id="Group_15682" data-name="Group 15682" transform="translate(125 2242)">
      <circle id="Ellipse_9" data-name="Ellipse 9" cx="27" cy="27" r="27" fill="#94cb1d" opacity="0.08"/>
    </g>
    <g id="svgexport-17_38_" data-name="svgexport-17 (38)" transform="translate(133.897 2250.891)">
      <path id="Path_86" data-name="Path 86" d="M33.631,8.784a3.346,3.346,0,1,0-6.179,1.777l-.257.257a.768.768,0,0,0,1.087,1.087l.264-.264a3.344,3.344,0,0,0,5.084-2.857Zm-3.346,2.834a2.814,2.814,0,0,1-1.625-.514.256.256,0,0,0-.328.029l-.411.411a.256.256,0,1,1-.362-.362l.406-.406a.256.256,0,0,0,.027-.331,2.832,2.832,0,1,1,2.294,1.174Zm-15.27-1.455-.171-.483a1.791,1.791,0,0,0,0,3.378l.169-.483a1.28,1.28,0,0,1,0-2.412Zm10.244-.484-.164.485a1.264,1.264,0,0,1,.851,1.2,1.3,1.3,0,0,1-.857,1.209l.176.481a1.81,1.81,0,0,0,1.193-1.691,1.776,1.776,0,0,0-1.2-1.687ZM8.012,16.486a.769.769,0,0,1,.769-.769H9.806V15.2H8.781A1.282,1.282,0,0,0,7.5,16.486V29.3h.512ZM32.606,29.3V16.486A1.282,1.282,0,0,0,31.325,15.2H30.3v.512h1.025a.769.769,0,0,1,.769.769V29.3ZM15.954,15.2h8.2v.512h-8.2Z" transform="translate(-1.951 -0.941)" fill="#94cb1d"/>
      <path id="Path_87" data-name="Path 87" d="M29.631,33.47V21.686a.769.769,0,0,0-.769-.769H7.343a.769.769,0,0,0-.769.769V33.47h.512V21.686a.256.256,0,0,1,.256-.256h21.52a.256.256,0,0,1,.256.256V33.47ZM6.318,37.825H29.887a2.814,2.814,0,0,0,2.818-2.818.769.769,0,0,0-.769-.769H4.269a.769.769,0,0,0-.769.769A2.821,2.821,0,0,0,6.318,37.825Zm14.6-3.074v.256a.256.256,0,0,1-.256.256H15.541a.256.256,0,0,1-.256-.256v-.256Zm-16.652,0h10.5v.256a.769.769,0,0,0,.769.769h5.124a.769.769,0,0,0,.769-.769v-.256h10.5a.256.256,0,0,1,.256.256,2.3,2.3,0,0,1-2.306,2.306H6.318a2.308,2.308,0,0,1-2.306-2.306.256.256,0,0,1,.256-.256Zm4.355-16.14v1.025a.769.769,0,0,0,.769.769h3.074a.769.769,0,0,0,.769-.769V18.611a1.283,1.283,0,0,0-1.281-1.281H9.9A1.282,1.282,0,0,0,8.624,18.611Zm4.1,0v1.025a.256.256,0,0,1-.256.256H12.21v-.769H11.7v.769h-.512v-.769h-.512v.769h-.512v-.769H9.648v.769H9.392a.256.256,0,0,1-.256-.256V18.611a.769.769,0,0,1,.769-.769h2.049A.769.769,0,0,1,12.723,18.611ZM23.739,20.4h3.074a.769.769,0,0,0,.769-.769V18.611A1.282,1.282,0,0,0,26.3,17.33H24.251a1.282,1.282,0,0,0-1.281,1.281v1.025A.769.769,0,0,0,23.739,20.4Zm-.256-1.793a.769.769,0,0,1,.769-.769H26.3a.769.769,0,0,1,.769.769v1.025a.256.256,0,0,1-.256.256h-.256v-.769h-.512v.769h-.512v-.769H25.02v.769h-.512v-.769h-.512v.769h-.256a.256.256,0,0,1-.256-.256Zm6.4-4.367-1.451.482a.257.257,0,0,1-.167,0l-1.451-.482A.249.249,0,0,1,26.639,14h-.512a.757.757,0,0,0,.529.73l1.449.482a.774.774,0,0,0,.49,0l1.449-.481a.758.758,0,0,0,.53-.731h-.512A.25.25,0,0,1,29.884,14.244Z" transform="translate(0 -5.116)" fill="#94cb1d"/>
      <path id="Path_88" data-name="Path 88" d="M48.189,12.73l1.449.482a.774.774,0,0,0,.49,0l1.449-.481a.758.758,0,0,0,.53-.731H51.6a.249.249,0,0,1-.178.244l-1.451.482a.257.257,0,0,1-.167,0l-1.451-.482A.249.249,0,0,1,48.172,12H47.66a.757.757,0,0,0,.529.73Z" transform="translate(-21.534 -4.14)" fill="#94cb1d"/>
      <path id="Path_89" data-name="Path 89" d="M27.6,8.5l1.454.485a.774.774,0,0,0,.486,0L30.992,8.5a.769.769,0,0,0,0-1.458l-1.454-.485a.767.767,0,0,0-.486,0L27.6,7.046A.769.769,0,0,0,27.6,8.5Zm.162-.972,1.454-.485a.257.257,0,0,1,.162,0l1.454.485a.256.256,0,0,1,0,.486L29.376,8.5a.265.265,0,0,1-.162,0L27.76,8.018a.256.256,0,0,1,0-.486ZM5.437,8.784a3.344,3.344,0,0,0,5.085,2.857l.264.264a.768.768,0,0,0,1.087-1.087l-.257-.257a3.312,3.312,0,0,0,.514-1.777,3.347,3.347,0,0,0-6.693,0ZM8.784,5.95a2.837,2.837,0,0,1,2.834,2.834,2.807,2.807,0,0,1-.54,1.659.256.256,0,0,0,.026.332l.406.406a.256.256,0,1,1-.362.362l-.411-.411a.258.258,0,0,0-.328-.029A2.833,2.833,0,1,1,8.784,5.95Z" transform="translate(-0.945 -0.941)" fill="#94cb1d"/>
      <path id="Path_90" data-name="Path 90" d="M7.711,8.387,8.736,9.412a.769.769,0,0,0,1.087,0l2.049-2.049a.768.768,0,1,0-1.087-1.087L9.279,7.781,8.8,7.3A.769.769,0,0,0,7.711,8.387Zm.362-.724a.256.256,0,0,1,.362,0l.662.662a.256.256,0,0,0,.362,0l1.687-1.687A.256.256,0,1,1,11.51,7L9.46,9.049a.256.256,0,0,1-.362,0L8.073,8.025a.256.256,0,0,1,0-.362Zm9.676,14.544a1.281,1.281,0,1,0-1.281,1.281A1.283,1.283,0,0,0,17.749,22.206Zm-2.049,0a.769.769,0,1,1,.769.769A.769.769,0,0,1,15.7,22.206Zm3.074,0a1.281,1.281,0,1,0,1.281-1.281,1.283,1.283,0,0,0-1.281,1.281Zm2.049,0a.769.769,0,1,1-.769-.769A.769.769,0,0,1,20.824,22.206Zm2.818-1.281a1.281,1.281,0,1,0,1.281,1.281A1.282,1.282,0,0,0,23.642,20.925Zm0,2.049a.769.769,0,1,1,.769-.769A.769.769,0,0,1,23.642,22.975ZM24.41,8.608a.726.726,0,0,1,.35-.644,1.281,1.281,0,0,0,.674-1.129V4.273a.768.768,0,0,0-1.153-.662,3.252,3.252,0,0,1-1.577.409h-4.7a2.307,2.307,0,0,0-2.306,2.3v5.636a4.392,4.392,0,0,0,.316,1.632l.476-.19a3.907,3.907,0,0,1-.268-1.215,1.283,1.283,0,0,0,1.013-1.252V8.372a.256.256,0,0,1,.256-.256h5.124a.256.256,0,0,1,.256.256v2.562a1.283,1.283,0,0,0,1.014,1.252,3.89,3.89,0,0,1-.268,1.215l.477.19a4.4,4.4,0,0,0,.315-1.632Zm-1.025,2.326V8.372a.769.769,0,0,0-.769-.769H17.493a.769.769,0,0,0-.769.769v2.562a.771.771,0,0,1-.512.725V6.323a1.793,1.793,0,0,1,1.793-1.79h4.7a3.761,3.761,0,0,0,1.826-.474.256.256,0,0,1,.392.214V6.835a.768.768,0,0,1-.405.677,1.227,1.227,0,0,0-.619,1.1v3.051A.771.771,0,0,1,23.386,10.934Z" transform="translate(-1.953 0)" fill="#94cb1d"/>
      <path id="Path_91" data-name="Path 91" d="M14.355,34.868l3.555-3.555a.768.768,0,1,0-1.087-1.087l-4.1,4.1a.769.769,0,0,0,0,1.087l4.1,4.1a.768.768,0,1,0,1.087-1.087Zm3.194,4.28a.256.256,0,0,1-.362,0l-4.1-4.1a.256.256,0,0,1,0-.362l4.1-4.1a.256.256,0,1,1,.362.362l-3.737,3.737a.256.256,0,0,0,0,.362l3.737,3.737A.257.257,0,0,1,17.549,39.148Zm10.61.362,4.1-4.1a.769.769,0,0,0,0-1.087l-4.1-4.1a.768.768,0,0,0-1.087,1.087l3.555,3.555-3.555,3.555a.769.769,0,0,0,1.087,1.087Zm-.725-.725,3.737-3.737a.256.256,0,0,0,0-.362L27.434,30.95a.256.256,0,1,1,.362-.362l4.1,4.1a.256.256,0,0,1,0,.362l-4.1,4.1a.256.256,0,1,1-.362-.362Z" transform="translate(-4.389 -12.918)" fill="#94cb1d"/>
      <circle id="Ellipse_11" data-name="Ellipse 11" cx="0.512" cy="0.512" r="0.512" transform="translate(15.541 9.909)" fill="#94cb1d"/>
      <circle id="Ellipse_12" data-name="Ellipse 12" cx="0.512" cy="0.512" r="0.512" transform="translate(19.64 9.909)" fill="#94cb1d"/>
      <path id="Path_92" data-name="Path 92" d="M30.293,19.843A1.8,1.8,0,0,1,28.5,18.049h.512a1.281,1.281,0,0,0,2.562,0h.512A1.8,1.8,0,0,1,30.293,19.843ZM30.037,16h.512v2.049h-.512Z" transform="translate(-12.191 -6.091)" fill="#94cb1d"/>
    </g>
  </g>
</svg>
