<svg xmlns="http://www.w3.org/2000/svg" width="108.195" height="28.684" viewBox="0 0 108.195 28.684">
  <path id="laravel-ar21" d="M32.026,44.327a.649.649,0,0,1-.558-.316l-4.91-8.189-9.182,2.5a.649.649,0,0,1-.725-.326L5.92,17.823a.649.649,0,0,1,.485-.949l9.11-1.225a.649.649,0,0,1,.645.308L27.149,34.311l12.78-3.476-4.261-6.019a.649.649,0,0,1,.363-1.007L42.01,22.4a.649.649,0,0,1,.656.225l5.174,6.461a.649.649,0,0,1-.337,1.033L42.069,31.6l4.758,6.693a.649.649,0,0,1-.316.989l-14.28,5.008a.65.65,0,0,1-.207.04Zm-4.168-8.861,4.45,7.422,12.969-4.54-4.529-6.385ZM7.505,18.027l10.042,18.9,8.334-2.262L15.268,16.993Zm29.8,6.827,4,5.62,4.957-1.349-4.312-5.37Zm17.369-1.962h1.3V36.818H54.68ZM68.66,26.771V36.818H67.385V35.079a5.56,5.56,0,0,1-1.824,1.486,5.1,5.1,0,0,1-5.853-1.048A5.185,5.185,0,0,1,58.2,31.756a5.1,5.1,0,0,1,1.523-3.712A4.965,4.965,0,0,1,63.4,26.5a4.751,4.751,0,0,1,2.24.526A5.094,5.094,0,0,1,67.4,28.607V26.769Zm-5.165,1a3.906,3.906,0,0,0-3.445,2.019,4.072,4.072,0,0,0,0,4.059,3.961,3.961,0,0,0,1.46,1.506,3.816,3.816,0,0,0,1.968.539,4.036,4.036,0,0,0,2.01-.535,3.742,3.742,0,0,0,1.46-1.448,4.136,4.136,0,0,0,.512-2.068,4,4,0,0,0-1.149-2.915,3.806,3.806,0,0,0-2.818-1.16Zm7.584-1H72.4V28.24a4.785,4.785,0,0,1,1.249-1.3,2.457,2.457,0,0,1,1.367-.43,2.357,2.357,0,0,1,1.149.343l-.677,1.1a1.8,1.8,0,0,0-.7-.175,1.868,1.868,0,0,0-1.248.53,3.356,3.356,0,0,0-.919,1.647,16.491,16.491,0,0,0-.23,3.47v3.4H71.071Zm16.183,0V36.818H85.988V35.079a5.56,5.56,0,0,1-1.824,1.486,5.1,5.1,0,0,1-5.853-1.048A5.185,5.185,0,0,1,76.8,31.756a5.092,5.092,0,0,1,1.525-3.712A4.965,4.965,0,0,1,82,26.5a4.751,4.751,0,0,1,2.24.526A5.1,5.1,0,0,1,86,28.607V26.769Zm-5.165,1a3.906,3.906,0,0,0-3.445,2.019,4.072,4.072,0,0,0,0,4.059,3.961,3.961,0,0,0,1.46,1.506,3.816,3.816,0,0,0,1.968.539,4.036,4.036,0,0,0,2.01-.535,3.742,3.742,0,0,0,1.46-1.448,4.136,4.136,0,0,0,.512-2.068,4,4,0,0,0-1.148-2.925,3.806,3.806,0,0,0-2.816-1.16Zm7.125-1H90.6l3.372,7.322,3.336-7.322h1.379l-4.6,10.047h-.23Zm19.886,6.713,1.1.572a5.934,5.934,0,0,1-1.238,1.7,4.915,4.915,0,0,1-1.58.983,5.514,5.514,0,0,1-1.987.338,4.826,4.826,0,0,1-3.846-1.6,5.434,5.434,0,0,1-1.379-3.643,5.319,5.319,0,0,1,1.174-3.4,4.8,4.8,0,0,1,3.983-1.9,4.955,4.955,0,0,1,4.1,1.948,5.417,5.417,0,0,1,1.1,3.446h-9.045A4.091,4.091,0,0,0,102.61,34.8a3.566,3.566,0,0,0,2.671,1.119,4.3,4.3,0,0,0,1.493-.267,3.986,3.986,0,0,0,1.234-.707,6.024,6.024,0,0,0,1.1-1.44Zm0-2.7a4.276,4.276,0,0,0-.753-1.651,3.566,3.566,0,0,0-1.307-1,4.009,4.009,0,0,0-1.7-.38,3.676,3.676,0,0,0-2.542.951,4.339,4.339,0,0,0-1.174,2.068Zm3.636-7.884h1.294V36.829h-1.294Z" transform="translate(-5.844 -15.643)" fill="#ef533f"/>
</svg>
