<svg id="nodejs-ar21" xmlns="http://www.w3.org/2000/svg" width="134.598" height="38.008" viewBox="0 0 134.598 38.008">
  <path id="Path_59" data-name="Path 59" d="M104.523,11.246a1.867,1.867,0,0,0-.928.227l-8.924,5.153a1.88,1.88,0,0,0-.928,1.629V28.544a1.882,1.882,0,0,0,.928,1.629L97,31.517a3.809,3.809,0,0,0,2.065.549,2.468,2.468,0,0,0,2.633-2.785V19.131a.255.255,0,0,0-.265-.246h-1.118a.255.255,0,0,0-.265.246V29.286c0,.784-.816,1.572-2.141.91l-2.423-1.421a.271.271,0,0,1-.152-.227V18.259a.3.3,0,0,1,.152-.246l8.9-5.135a.263.263,0,0,1,.265,0l8.9,5.135a.3.3,0,0,1,.152.246V28.547a.285.285,0,0,1-.133.246l-8.924,5.135a.274.274,0,0,1-.265,0L102.1,32.564a.238.238,0,0,0-.227,0,5.906,5.906,0,0,1-1.345.606c-.146.051-.369.13.076.379l2.993,1.764a1.843,1.843,0,0,0,.928.246,1.808,1.808,0,0,0,.928-.246l8.924-5.135a1.885,1.885,0,0,0,.928-1.629V18.262a1.882,1.882,0,0,0-.928-1.629l-8.924-5.153a1.86,1.86,0,0,0-.928-.227ZM106.91,18.6c-2.541,0-4.054,1.081-4.054,2.88,0,1.949,1.5,2.487,3.941,2.728,2.918.286,3.145.714,3.145,1.288,0,1-.794,1.421-2.671,1.421-2.358,0-2.877-.589-3.05-1.764a.257.257,0,0,0-.246-.227h-1.159a.271.271,0,0,0-.265.265c0,1.5.817,3.278,4.718,3.278,2.824,0,4.452-1.106,4.452-3.05,0-1.922-1.316-2.442-4.054-2.8-2.765-.369-3.031-.545-3.031-1.194,0-.535.224-1.251,2.274-1.251,1.831,0,2.508.395,2.785,1.629a.261.261,0,0,0,.246.211H111.1a.281.281,0,0,0,.19-.095.249.249,0,0,0,.076-.19c-.179-2.126-1.6-3.126-4.452-3.126Z" transform="translate(19.291 2.241)" fill="#83cd29"/>
  <path id="Path_60" data-name="Path 60" d="M71.538.084a.568.568,0,0,0-.568.569V15.146a.384.384,0,0,1-.19.341.4.4,0,0,1-.4,0l-2.368-1.364a1.135,1.135,0,0,0-1.137,0l-9.454,5.456a1.164,1.164,0,0,0-.569,1V31.5a1.135,1.135,0,0,0,.569.985l9.454,5.457a1.132,1.132,0,0,0,1.137,0l9.454-5.457a1.135,1.135,0,0,0,.569-.985V4.29a1.155,1.155,0,0,0-.587-1L71.823.14a.557.557,0,0,0-.284-.057ZM10.721,13.706a1.069,1.069,0,0,0-.512.133L.755,19.3a1.132,1.132,0,0,0-.568.985L.206,34.926a.559.559,0,0,0,.284.492.55.55,0,0,0,.568,0L6.667,32.2a1.156,1.156,0,0,0,.587-.985v-6.84a1.13,1.13,0,0,1,.569-.985L10.21,22a1.141,1.141,0,0,1,1.137,0l2.386,1.382a1.131,1.131,0,0,1,.568.985v6.84a1.164,1.164,0,0,0,.587.985L20.5,35.417a.55.55,0,0,0,.568,0,.571.571,0,0,0,.284-.492l.019-14.645a1.127,1.127,0,0,0-.568-.985l-9.454-5.456a1.062,1.062,0,0,0-.512-.133h-.113Zm84.955.133a1.13,1.13,0,0,0-.569.152l-9.454,5.457a1.135,1.135,0,0,0-.569.985V31.345a1.141,1.141,0,0,0,.587.985l9.378,5.346a1.137,1.137,0,0,0,1.118.018l5.684-3.164a.574.574,0,0,0,.3-.492.561.561,0,0,0-.284-.492l-9.511-5.457a.612.612,0,0,1-.3-.512V24.164a.585.585,0,0,1,.3-.492l2.956-1.705a.569.569,0,0,1,.569,0l2.957,1.705a.566.566,0,0,1,.284.492v2.69a.569.569,0,0,0,.853.492l5.665-3.3a1.139,1.139,0,0,0,.569-.985V20.433a1.138,1.138,0,0,0-.569-.985l-9.4-5.457a1.127,1.127,0,0,0-.569-.152ZM67.408,21.986a.319.319,0,0,1,.152.038L70.8,23.9a.294.294,0,0,1,.152.246V27.9a.292.292,0,0,1-.152.246l-3.24,1.876a.288.288,0,0,1-.284,0l-3.24-1.876a.293.293,0,0,1-.152-.246V24.145a.294.294,0,0,1,.152-.246l3.24-1.875a.249.249,0,0,1,.133-.038h0Z" transform="translate(-0.187 -0.083)" fill="#404137"/>
  <path id="Path_61" data-name="Path 61" d="M34.237,11.421a1.135,1.135,0,0,0-.569.152L24.214,17.01a1.164,1.164,0,0,0-.568,1V28.928a1.132,1.132,0,0,0,.568.985l9.454,5.457a1.132,1.132,0,0,0,1.137,0l9.454-5.457a1.135,1.135,0,0,0,.569-.985V18.014a1.162,1.162,0,0,0-.569-1L34.8,11.572a1.124,1.124,0,0,0-.569-.152ZM90.773,21.16a.24.24,0,0,0-.114.018l-1.819,1.061a.221.221,0,0,0-.114.189v2.084a.222.222,0,0,0,.114.19l1.819,1.042a.2.2,0,0,0,.208,0L92.686,24.7a.223.223,0,0,0,.114-.19V22.429a.223.223,0,0,0-.114-.19l-1.819-1.061a.156.156,0,0,0-.095-.018Z" transform="translate(4.697 2.277)" fill="#83cd29"/>
</svg>
