<svg id="python-ar21" xmlns="http://www.w3.org/2000/svg" xmlns:xlink="http://www.w3.org/1999/xlink" width="138.223" height="40.117" viewBox="0 0 138.223 40.117">
  <defs>
    <linearGradient id="linear-gradient" x2="0.745" y2="0.641" gradientUnits="objectBoundingBox">
      <stop offset="0" stop-color="#5a9fd4"/>
      <stop offset="1" stop-color="#306998"/>
    </linearGradient>
    <linearGradient id="linear-gradient-2" x1="0.5" y1="0.823" x2="0.234" y2="0.449" gradientUnits="objectBoundingBox">
      <stop offset="0" stop-color="#ffd43b"/>
      <stop offset="1" stop-color="#ffe873"/>
    </linearGradient>
    <radialGradient id="radial-gradient" cx="0.5" cy="0.5" r="0.5" gradientUnits="objectBoundingBox">
      <stop offset="0" stop-color="#b8b8b8" stop-opacity="0.498"/>
      <stop offset="1" stop-color="#7f7f7f" stop-opacity="0"/>
    </radialGradient>
  </defs>
  <path id="Path_62" data-name="Path 62" d="M67.572,13.738q0-6.359-3.626-6.535a6.764,6.764,0,0,0-2.815.462,4.164,4.164,0,0,0-1.478.78V18.564a7.163,7.163,0,0,0,4.117,1.351q3.805-.251,3.8-6.177Zm2.982.176a8.992,8.992,0,0,1-1.521,5.363,5.608,5.608,0,0,1-4.707,2.483,8.346,8.346,0,0,1-4.673-1.419v9.2l-2.593-.925V8.2a5.836,5.836,0,0,1,1.633-1.351,11.241,11.241,0,0,1,5.63-1.385l.037.037a5.155,5.155,0,0,1,4.665,2.483,10.557,10.557,0,0,1,1.529,5.93ZM86.4,19.949q0,4.333-.869,6a6.123,6.123,0,0,1-3.322,2.662,12.719,12.719,0,0,1-4.3.854l-.428-1.634a20.632,20.632,0,0,0,3.3-.638,4.365,4.365,0,0,0,2.593-1.952,9.8,9.8,0,0,0,.567-4.083v-.675a13.324,13.324,0,0,1-5.576,1.206A5.123,5.123,0,0,1,75,20.483a4.1,4.1,0,0,1-1.634-3.337V6.353l2.593-.888V16.329a3.3,3.3,0,0,0,1.123,2.681,4.248,4.248,0,0,0,2.909.905,7.271,7.271,0,0,0,3.816-1.385V5.856H86.4V19.949Zm10.128,1.669-.854.037a5.106,5.106,0,0,1-3.428-1.049,3.628,3.628,0,0,1-1.223-2.9V7.484H89.251V5.852h1.772V1.523L93.614.6V5.855h2.914V7.487H93.614V17.634A2.455,2.455,0,0,0,94.4,19.7a3.969,3.969,0,0,0,2.131.57v1.351Zm15.7-.213h-2.593V11.394a4.731,4.731,0,0,0-.712-2.627,2.592,2.592,0,0,0-2.284-1.243,8.419,8.419,0,0,0-4.461,1.881v12H99.587V-2.524l2.594-.817v10.9a9.033,9.033,0,0,1,5.434-1.807,4.329,4.329,0,0,1,3.337,1.385,4.876,4.876,0,0,1,1.28,3.445V21.409Zm13.784-8.076a8.006,8.006,0,0,0-.925-4.038,3.872,3.872,0,0,0-3.408-2.051q-4.264.247-4.262,6.106a10.024,10.024,0,0,0,.891,4.483,3.583,3.583,0,0,0,3.422,2.259q4.282-.034,4.281-6.762Zm2.84.017a9.249,9.249,0,0,1-1.772,5.789,6.389,6.389,0,0,1-5.4,2.591,6.269,6.269,0,0,1-5.329-2.591,9.348,9.348,0,0,1-1.739-5.789,8.265,8.265,0,0,1,1.881-5.5,6.482,6.482,0,0,1,5.221-2.378,6.591,6.591,0,0,1,5.258,2.378,8.28,8.28,0,0,1,1.881,5.5Zm14.868,8.058h-2.593V10.827a3.537,3.537,0,0,0-1.047-2.718,3.8,3.8,0,0,0-2.789-.939,6.235,6.235,0,0,0-3.516,1.206v13.03h-2.594V8.055a12.769,12.769,0,0,1,4.12-2.128,12.387,12.387,0,0,1,3.127-.462,8.094,8.094,0,0,1,1.739.179,5.01,5.01,0,0,1,2.486,1.314,3.48,3.48,0,0,1,1.067,2.557V21.405Z" transform="translate(-15.454 3.341)" fill="#646464"/>
  <path id="Path_63" data-name="Path 63" d="M39.292-2.6a22.288,22.288,0,0,0-3.73.318c-3.3.584-3.9,1.8-3.9,4.057V4.751h7.805v.991H28.727A4.873,4.873,0,0,0,23.851,9.7a14.59,14.59,0,0,0,0,7.933c.555,2.311,1.88,3.957,4.148,3.957h2.684V18.023a4.96,4.96,0,0,1,4.876-4.849h7.8a3.932,3.932,0,0,0,3.9-3.967V1.776a4.357,4.357,0,0,0-3.9-4.057A24.349,24.349,0,0,0,39.289-2.6ZM35.068-.208a1.481,1.481,0,0,1,1.465,1.492,1.465,1.465,0,1,1-2.93,0A1.479,1.479,0,0,1,35.068-.208Z" transform="translate(-23.302 3.513)" fill="url(#linear-gradient)"/>
  <path id="Path_64" data-name="Path 64" d="M46.661,4.168V7.635a5.006,5.006,0,0,1-4.876,4.949h-7.8a3.982,3.982,0,0,0-3.9,3.967v7.433c0,2.115,1.839,3.359,3.9,3.967a13.062,13.062,0,0,0,7.8,0c1.965-.569,3.9-1.714,3.9-3.967V21.008h-7.8v-.991h11.7c2.269,0,3.114-1.582,3.9-3.957a13.4,13.4,0,0,0,0-7.933c-.561-2.258-1.631-3.957-3.9-3.957h-2.93ZM42.276,22.991a1.488,1.488,0,1,1-1.465,1.483A1.473,1.473,0,0,1,42.276,22.991Z" transform="translate(-21.725 5.087)" fill="url(#linear-gradient-2)"/>
  <path id="Path_65" data-name="Path 65" d="M131.677,2.846h.455V0h1.077v-.34H130.6V0h1.077V2.846m1.935,0H134V.242l.843,2.6h.433l.879-2.6v2.6h.424V-.345h-.561l-.96,2.734L134.24-.345h-.627V2.846" transform="translate(1.644 4.037)" fill="#646464"/>
  <path id="Path_66" data-name="Path 66" d="M23.1,25.677c0,1.12-4.683,2.028-10.46,2.028S2.18,26.8,2.18,25.677s4.683-2.028,10.46-2.028S23.1,24.556,23.1,25.677Z" transform="translate(3.612 12.411)" opacity="0.444" fill="url(#radial-gradient)"/>
</svg>
