<svg xmlns="http://www.w3.org/2000/svg" width="102.598" height="34.731" viewBox="0 0 102.598 34.731">
  <g id="reactjs-ar21" transform="translate(0.831 0.899)">
    <g id="Group_15691" data-name="Group 15691" transform="translate(0 0)">
      <ellipse id="Ellipse_10" data-name="Ellipse 10" cx="3.472" cy="3.472" rx="3.472" ry="3.472" transform="translate(15.138 12.96)" fill="#00d8ff"/>
      <g id="Group_15690" data-name="Group 15690" transform="translate(0 0)">
        <path id="Path_67" data-name="Path 67" d="M18.653,9.4A38.954,38.954,0,0,1,30.91,11.189c3.934,1.354,6.353,3.407,6.353,5.266,0,1.937-2.563,4.118-6.788,5.518a39.114,39.114,0,0,1-11.822,1.611A38.987,38.987,0,0,1,6.591,21.961C2.5,20.565.043,18.356.043,16.455c0-1.844,2.309-3.881,6.188-5.233A39.294,39.294,0,0,1,18.653,9.4Z" transform="translate(-0.043 -0.024)" fill="none" stroke="#00d8ff" stroke-width="1.663" fill-rule="evenodd"/>
        <path id="Path_68" data-name="Path 68" d="M12.516,12.936a38.955,38.955,0,0,1,7.676-9.722C23.331.483,26.318-.587,27.928.342c1.678.968,2.287,4.278,1.389,8.637a39.092,39.092,0,0,1-4.511,11.045,38.976,38.976,0,0,1-7.431,9.639c-3.251,2.842-6.395,3.871-8.041,2.921-1.6-.92-2.208-3.939-1.442-7.975a39.309,39.309,0,0,1,4.623-11.673Z" transform="translate(-0.051 -0.014)" fill="none" stroke="#00d8ff" stroke-width="1.663" fill-rule="evenodd"/>
        <path id="Path_69" data-name="Path 69" d="M12.522,20.034A38.965,38.965,0,0,1,7.933,8.528C7.134,4.445,7.7,1.323,9.308.392c1.676-.971,4.848.155,8.176,3.11A39.112,39.112,0,0,1,24.8,12.926,38.98,38.98,0,0,1,29.44,24.178c.839,4.236.16,7.473-1.485,8.425-1.6.924-4.516-.054-7.629-2.734a39.3,39.3,0,0,1-7.8-9.835Z" transform="translate(-0.051 -0.014)" fill="none" stroke="#00d8ff" stroke-width="1.663" fill-rule="evenodd"/>
      </g>
    </g>
    <path id="Path_70" data-name="Path 70" d="M64.608,38.831,60.352,32.4a4.359,4.359,0,0,0,4.089-4.6,4.6,4.6,0,0,0-4.94-4.751H53.168V38.819H55.13V32.556h3.144l4.018,6.263Zm-5.341-7.989H55.131V24.816h4.136a3.017,3.017,0,1,1,0,6.029Zm12.645,8.271a6.2,6.2,0,0,0,4.538-1.748L75.6,36.207a4.99,4.99,0,0,1-3.521,1.441A4.023,4.023,0,0,1,67.964,33.7H77.2v-.45c0-3.426-2.033-6.122-5.484-6.122a5.708,5.708,0,0,0-5.624,5.98A5.652,5.652,0,0,0,71.91,39.1ZM75.457,32.4H67.965A3.809,3.809,0,0,1,71.7,28.6,3.7,3.7,0,0,1,75.457,32.4Zm13.52,6.429V30.984c0-2.765-2.008-3.853-4.419-3.853A5.972,5.972,0,0,0,80,29.022l.827,1.229a4.536,4.536,0,0,1,3.5-1.583c1.654,0,2.884.874,2.884,2.41v2.056a4.773,4.773,0,0,0-3.782-1.56,3.74,3.74,0,0,0-4,3.758,3.8,3.8,0,0,0,4,3.782,4.938,4.938,0,0,0,3.782-1.583v1.3Zm-4.915-.993a2.512,2.512,0,1,1,0-4.987,3.823,3.823,0,0,1,3.144,1.418V36.42a3.824,3.824,0,0,1-3.144,1.418Zm13.486,1.277a4.889,4.889,0,0,0,4.184-1.985l-1.182-1.087a3.437,3.437,0,0,1-2.9,1.488c-2.434,0-3.946-1.891-3.946-4.419s1.512-4.4,3.946-4.4a3.358,3.358,0,0,1,2.9,1.488l1.182-1.087a4.885,4.885,0,0,0-4.184-1.985,5.64,5.64,0,0,0-5.7,5.98c0,3.4,2.293,5.994,5.7,5.994Zm9.55,0a2.905,2.905,0,0,0,2.128-.732l-.519-1.324a1.694,1.694,0,0,1-1.206.472c-.779,0-1.159-.614-1.159-1.465v-7.09h2.318V27.415h-2.318V24.3h-1.773v3.12h-1.891v1.56h1.891v7.469c0,1.7.851,2.671,2.529,2.671Z" transform="translate(-7.459 -13.529)" fill="#00d8ff" fill-rule="evenodd"/>
  </g>
</svg>
