<svg id="vuejs-ar21" xmlns="http://www.w3.org/2000/svg" width="104.684" height="36.876" viewBox="0 0 104.684 36.876">
  <path id="path893" d="M43.446,11.952h8.473L30.524,48.821,8.989,11.952h8.666l12.87,22.2Z" transform="translate(-8.989 -11.945)" fill="#41b883" fill-rule="evenodd"/>
  <path id="path895" d="M35.448,11.945h8.059L30.522,34.187,17.642,11.945h7.933l4.947,8.563Z" transform="translate(-8.998 -11.945)" fill="#35495e" fill-rule="evenodd"/>
  <path id="path897" d="M57.026,19.23a.79.79,0,0,1,.453-.68,1.813,1.813,0,0,1,.947-.272.78.78,0,0,1,.851.517l4.831,16.156,4.8-16.156a.787.787,0,0,1,.824-.517,1.735,1.735,0,0,1,.975.3.835.835,0,0,1,.453.68.364.364,0,0,1-.014.082.441.441,0,0,0-.014.109L65.564,37.535a1.371,1.371,0,0,1-1.455.789q-1.153,0-1.4-.789L57.081,19.448a.884.884,0,0,1-.055-.218ZM71.38,33.156V26.084a.7.7,0,0,1,.343-.571,1.358,1.358,0,0,1,.81-.245,1.267,1.267,0,0,1,.782.258.715.715,0,0,1,.343.558v7.071a3.115,3.115,0,0,0,.933,2.2,3,3,0,0,0,4.42.014,3.1,3.1,0,0,0,.933-2.217v-7.1a.681.681,0,0,1,.343-.544,1.358,1.358,0,0,1,.81-.245,1.336,1.336,0,0,1,.81.231.677.677,0,0,1,.316.558v7.1a4.949,4.949,0,0,1-1.606,3.658,5.437,5.437,0,0,1-7.631,0,4.949,4.949,0,0,1-1.606-3.658ZM84.086,33.1V30.245a4.82,4.82,0,0,1,1.606-3.617A5.406,5.406,0,0,1,89.549,25.1a5.314,5.314,0,0,1,3.706,1.428,4.639,4.639,0,0,1,1.565,3.577,3.442,3.442,0,0,1-.192,1.265,1.254,1.254,0,0,1-.59.68,2.506,2.506,0,0,1-.741.258,6.145,6.145,0,0,1-.92.054H86.365v.816a2.95,2.95,0,0,0,1.084,2.393,4.268,4.268,0,0,0,2.814.9,4.194,4.194,0,0,0,1.578-.272,7.061,7.061,0,0,0,1.084-.53,1.369,1.369,0,0,1,.659-.258.823.823,0,0,1,.659.34,1.1,1.1,0,0,1,.275.694q0,.626-1.249,1.278a6.613,6.613,0,0,1-3.088.653,6.522,6.522,0,0,1-4.392-1.455,4.784,4.784,0,0,1-1.7-3.821Zm2.278-2.257h5.079a1.8,1.8,0,0,0,.961-.177.807.807,0,0,0,.247-.694A3.126,3.126,0,0,0,89.522,26.9a3.176,3.176,0,0,0-2.224.857,2.749,2.749,0,0,0-.933,2.108Zm9.6,6.065a1.406,1.406,0,0,1,.412-1.02,1.364,1.364,0,0,1,1.016-.422,1.332,1.332,0,0,1,.988.422,1.406,1.406,0,0,1,.412,1.02,1.374,1.374,0,0,1-.412.993,1.332,1.332,0,0,1-.988.422,1.423,1.423,0,0,1-1.427-1.414ZM98,43.41a1,1,0,0,1,.275-.721.881.881,0,0,1,.659-.286,1.353,1.353,0,0,0,1.4-.789,6.461,6.461,0,0,0,.329-2.366V26.057a.665.665,0,0,1,.316-.571,1.4,1.4,0,0,1,.81-.218,1.463,1.463,0,0,1,.824.218.659.659,0,0,1,.329.571V39.248A6.637,6.637,0,0,1,102.005,43a3.177,3.177,0,0,1-2.827,1.387q-1.18,0-1.18-.979Zm2.361-22.983a1.185,1.185,0,0,1,.412-.9,1.44,1.44,0,0,1,1.016-.381,1.4,1.4,0,0,1,.988.381,1.185,1.185,0,0,1,.412.9,1.227,1.227,0,0,1-.412.911,1.378,1.378,0,0,1-.988.394,1.426,1.426,0,0,1-1-.394A1.21,1.21,0,0,1,100.358,20.427Zm4.279,15.884a1.213,1.213,0,0,1,.233-.694.674.674,0,0,1,.563-.34,1.216,1.216,0,0,1,.631.326,4.911,4.911,0,0,0,1.18.639,4.79,4.79,0,0,0,1.812.313,3.216,3.216,0,0,0,1.99-.49,1.5,1.5,0,0,0,.618-1.224,1.711,1.711,0,0,0-.686-1.428,4.779,4.779,0,0,0-1.675-.8q-.988-.272-1.977-.6a3.832,3.832,0,0,1-1.675-1.088,2.892,2.892,0,0,1-.686-2.013,3.688,3.688,0,0,1,1.112-2.679,4.57,4.57,0,0,1,3.39-1.129,7.592,7.592,0,0,1,2.663.449q1.208.449,1.208,1.02a1.4,1.4,0,0,1-.261.734.757.757,0,0,1-.645.408,6.913,6.913,0,0,1-1.057-.394,4.862,4.862,0,0,0-1.88-.394,2.649,2.649,0,0,0-1.88.585A1.778,1.778,0,0,0,107,28.831a1.35,1.35,0,0,0,.686,1.2,5.64,5.64,0,0,0,1.688.68,19.978,19.978,0,0,1,1.99.6,3.723,3.723,0,0,1,1.675,1.21,3.436,3.436,0,0,1,.686,2.217,3.248,3.248,0,0,1-1.208,2.665,5.225,5.225,0,0,1-3.376.979,6.99,6.99,0,0,1-3.184-.666q-1.318-.666-1.318-1.4Z" transform="translate(-9.04 -11.952)" fill="#010101" fill-rule="evenodd"/>
</svg>
