<svg width="29" height="40" viewBox="0 0 29 40" fill="none" xmlns="http://www.w3.org/2000/svg">
<path fill-rule="evenodd" clip-rule="evenodd" d="M18.1683 14.0606L26.3623 4.80336C26.7795 4.32939 26.8796 3.68073 26.6115 3.1092C26.3469 2.53965 25.7639 2.19489 25.1291 2.19489H13.545C12.9337 2.19489 12.3722 2.52976 12.0914 3.0624L2.4203 21.4997C2.16035 21.9967 2.18117 22.6454 2.47739 23.1246C2.77428 23.6012 3.30157 23.9486 3.87117 23.9486H11.2676L7.32101 35.7833C7.09532 36.5196 7.43655 37.2869 8.13444 37.6403C8.37357 37.7609 8.62814 37.8051 8.8854 37.8051C9.37574 37.8051 9.85332 37.5836 10.173 37.1815L26.4174 16.7363C26.8003 16.2517 26.8688 15.5517 26.5961 15.0032C26.3227 14.4521 25.7538 14.0606 25.1291 14.0606H18.1683Z" fill="url(#paint0_radial)"/>
<path fill-rule="evenodd" clip-rule="evenodd" d="M27.8409 14.4056C27.3356 13.3871 26.2857 12.699 25.1285 12.699H21.2096L27.4077 5.69676C28.1833 4.81543 28.3652 3.59579 27.8699 2.53952C27.3816 1.48878 26.3063 0.833313 25.1285 0.833313H13.5443C12.4153 0.833313 11.3789 1.4517 10.8599 2.4363L1.18742 20.876C0.706288 21.796 0.745762 22.9478 1.29186 23.8313C1.84494 24.7192 2.81421 25.3102 3.87039 25.3102H9.35434L5.9979 35.375L5.99308 35.3907C5.5744 36.7567 6.20819 38.1972 7.49873 38.8506C7.93426 39.0703 8.39797 39.1666 8.88467 39.1666C9.80901 39.1666 10.6867 38.7464 11.2647 38.0196L27.5095 17.574C28.2184 16.6769 28.3459 15.4213 27.8409 14.4056ZM26.3618 4.80334L18.1676 14.0605H25.1285C25.7532 14.0605 26.3221 14.4521 26.5955 15.0032C26.8682 15.5517 26.7997 16.2517 26.4168 16.7363L10.1723 37.1815C9.8526 37.5836 9.37501 37.8051 8.88467 37.8051C8.62741 37.8051 8.37283 37.7609 8.1337 37.6403C7.4358 37.2869 7.09457 36.5196 7.32027 35.7833L11.2669 23.9486H3.87039C3.30079 23.9486 2.7735 23.6012 2.4766 23.1246C2.18038 22.6454 2.15956 21.9967 2.41951 21.4997L12.0907 3.06238C12.3715 2.52975 12.933 2.19487 13.5443 2.19487H25.1285C25.7633 2.19487 26.3463 2.53964 26.611 3.10919C26.879 3.68072 26.7789 4.32938 26.3618 4.80334Z" fill="white"/>
<defs>
<radialGradient id="paint0_radial" cx="0" cy="0" r="1" gradientUnits="userSpaceOnUse" gradientTransform="translate(18.9907 2.19489) rotate(90) scale(36.439 25.0928)">
<stop stop-color="#F01E1E"/>
<stop offset="0.54416" stop-color="#82010B"/>
<stop offset="1" stop-color="#600616"/>
</radialGradient>
</defs>
</svg>